<?xml version="1.0" encoding="utf-8"?>
<!-- Generator: Adobe Illustrator 19.2.1, SVG Export Plug-In . SVG Version: 6.00 Build 0)  -->
<!DOCTYPE svg PUBLIC "-//W3C//DTD SVG 1.1//EN" "http://www.w3.org/Graphics/SVG/1.1/DTD/svg11.dtd">
<svg version="1.1" xmlns="http://www.w3.org/2000/svg" xmlns:xlink="http://www.w3.org/1999/xlink" x="0px" y="0px"
	 viewBox="0 0 960 450" style="enable-background:new 0 0 960 450;" xml:space="preserve">
<g id="Trace">
</g>
<g id="Background">
	<rect style="fill:#6F7EB2;" width="960" height="450"/>
</g>
<g id="Main">
	<g>
		<rect x="164.8" y="232" style="fill:#42496C;" width="177.4" height="217.9"/>
		<rect x="164.8" y="289" style="fill:#2F364C;" width="177.4" height="30.8"/>
		<rect x="164.8" y="362.6" style="fill:#2F364C;" width="177.4" height="30.8"/>
		<rect x="164.8" y="223.2" style="fill:#2F364C;" width="177.4" height="30.8"/>
		<rect x="164.8" y="289" style="fill:#377AA7;" width="177.4" height="9.1"/>
		<rect x="164.8" y="362.6" style="fill:#377AA7;" width="177.4" height="9.1"/>
		<rect x="164.8" y="223.2" style="fill:#377AA7;" width="177.4" height="9.1"/>
		<rect x="164.8" y="440.9" style="fill:#377AA7;" width="177.4" height="9.1"/>
		
			<rect x="60.4" y="336.4" transform="matrix(3.654836e-11 1 -1 3.654836e-11 510.2532 171.5934)" style="fill:#377AA7;" width="217.9" height="9.1"/>
		
			<rect x="228.7" y="336.4" transform="matrix(3.654836e-11 1 -1 3.654836e-11 678.5449 3.3017)" style="fill:#377AA7;" width="217.9" height="9.1"/>
	</g>
	<g>
		<g>
			<polygon style="fill:#79A78D;" points="509.3,346.4 509.9,344.5 507.4,334.9 500.8,327.6 494.8,326.9 490.7,334.3 503,338.9 			
				"/>
			
				<ellipse transform="matrix(0.3532 -0.9356 0.9356 0.3532 6.1283 678.2783)" style="fill:#79A78D;" cx="493.6" cy="334.7" rx="3.2" ry="3.2"/>
			<polygon style="fill:#79A78D;" points="501,343.6 502.2,342 497.8,340.1 494.2,335.7 492.1,337.5 			"/>
		</g>
	</g>
	<path style="fill:#202133;stroke:#666666;stroke-miterlimit:10;" d="M436.7,290.4l19.3,33.5c1.9,3.2,0.8,7.4-2.5,9.3l-0.8,0.4
		c-3.2,1.9-7.4,0.8-9.3-2.5l-19.3-33.5c-1.9-3.2-0.8-7.4,2.5-9.3l0.8-0.4C430.7,286.1,434.8,287.2,436.7,290.4z"/>
	<path style="fill:#202133;stroke:#666666;stroke-miterlimit:10;" d="M492.2,337.6l-42.5-1.6c-3.4-0.1-6-2.9-5.9-6.3l0-0.8
		c0.1-3.4,2.9-6,6.3-5.9l42.5,1.6c1.9,0.1,3.3,1.6,3.3,3.5l-0.2,6.2C495.6,336.2,494.1,337.7,492.2,337.6z"/>
	
		<rect x="563.9" y="377.2" transform="matrix(-0.7199 -0.6941 0.6941 -0.7199 746.8684 1060.6869)" style="fill:#4D4D4D;" width="47.1" height="4.9"/>
	
		<rect x="445.4" y="438" transform="matrix(-0.924 -0.3823 0.3823 -0.924 717.1656 1021.5538)" style="fill:#4D4D4D;" width="29.4" height="3"/>
	
		<rect x="417.3" y="437.6" transform="matrix(-0.9478 0.3188 -0.3188 -0.9478 980.9621 717.6423)" style="fill:#4D4D4D;" width="28.9" height="3"/>
	<g>
		<g>
			<polygon style="fill:#79A78D;" points="511,344.4 510.9,342.4 505.2,334.4 496.5,329.9 490.7,331.3 489.4,339.7 502.5,339.6 			
				"/>
			<circle style="fill:#79A78D;" cx="492.2" cy="339" r="3.2"/>
			<polygon style="fill:#79A78D;" points="502.3,344.8 502.9,342.8 498.1,342.6 493.1,339.7 491.8,342.2 			"/>
		</g>
	</g>
	<path style="fill:#79A78D;" d="M456.4,245.3c0,0,8.3,12.8,7.9,17.2s-0.4,5.9-0.4,5.9l2.7,8.8c0.2,0.7-0.1,1.4-0.7,1.7l-3.5,2.1
		l-1.4,8.6c-0.4,2.8-3.2,4.5-5.9,3.8l-2.3-0.7l-12.5-4.2l-7.3-1.1l-4.3-15l-8.2-18.1c0,0,6.6-7.9,14.8-9.7S456.4,245.3,456.4,245.3z
		"/>
	<polygon points="461.2,266 457.2,265.4 453.8,265.7 451.9,266.2 452,264.9 454.6,262.9 456.4,263 461.2,263.9 462.5,264.5 
		462.5,265.8 	"/>
	<path d="M457.2,268c0,1.2,1,2.2,2.1,2.2s2.1-1,2.1-2.2s-1-1.2-2.1-1.5C457.5,266,457.2,266.8,457.2,268z"/>
	<path style="fill:#6A8278;" d="M437.8,267.9c0-0.1-0.3-1-1.2-1.2c-0.8-0.2-1.7,0.4-2,1.1c-0.4,0.8-0.1,1.6,0,1.8l2.9,6.9l0.9,2.9
		l2,2.1l-0.3-3.2L437.8,267.9z"/>
	<path d="M443,266v8.3l0.5,2.9l-3.3-3.1l-2.5-6.2l-3.1-0.1l-0.2,5.1l-1.4,3.4v2.7l-0.2,3.6l-6.7-8.5l-4.5-2.4l1.7-16.5l5.5-9
		c0,0,3.5-7,3.3-5.4c-0.9,7.7,4.8,2.9,4.8,2.9s17.8-9.6,15.3-7.2c-1.7,1.6-3,4.3-3,4.3s7.9-2.4,6.4-1.8c-2,0.9-3,5.6-3,5.6
		s18.2-1.2,14.6-0.6c-9.3,1.5-6.8,3.7-6.8,3.7l5.8,3.2l-5.8-0.7c0,0,2,0.9,3.6,3.9c1.6,3.1,0.7,3-2.2,1.1c-2.8-1.9-11.1-3-11.1-3
		l3.7,3.9l-8.5-2.4l2.8,3.7l-5.9-1.4l3.3,5h-3.4l2.7,5.5L443,266z"/>
	<path style="fill:#202133;stroke:#4D4D4D;stroke-miterlimit:10;" d="M442.7,234.1c0,0-5.5,37.5-2.3,48.5s-32.6,4.7-32.6,4.7
		S428.1,226.7,442.7,234.1z"/>
	<path style="fill:#202133;stroke:#4D4D4D;stroke-miterlimit:10;" d="M443.7,363.9h-30.1l-3.7-66.3l0.5-6.9c2.5-3.7,5.5-3.3,8.4-3.3
		l20.1,0.1l7,15.7L443.7,363.9z"/>
	<path style="fill:#202133;stroke:#666666;stroke-miterlimit:10;" d="M433,295.5l19.3,33.5c1.9,3.2,0.8,7.4-2.5,9.3l-0.8,0.4
		c-3.2,1.9-7.4,0.8-9.3-2.5l-19.3-33.5c-1.9-3.2-0.8-7.4,2.5-9.3l0.8-0.4C427,291.2,431.2,292.3,433,295.5z"/>
	<path style="fill:#202133;stroke:#666666;stroke-miterlimit:10;" d="M488.5,342.7l-42.5-1.6c-3.4-0.1-6-2.9-5.9-6.3l0-0.8
		c0.1-3.4,2.9-6,6.3-5.9l42.5,1.6c1.9,0.1,3.3,1.6,3.3,3.5l-0.2,6.2C492,341.3,490.4,342.8,488.5,342.7z"/>
	<path style="fill:#202133;stroke:#4D4D4D;stroke-miterlimit:10;" d="M500.2,384.6l-75.8,2.5c-7,0-12.6-5.7-12.6-12.6v-7
		c0-2,1.6-3.7,3.7-3.7h75.2c5.3,0,9.6,4.3,9.6,9.6V384.6z"/>
	<path style="fill:#202133;stroke:#666666;stroke-miterlimit:10;" d="M500.1,370.8l10.8,60.2c0.3,1.8-0.9,3.5-2.6,3.8l-4.9,1.4
		c-1.8,0.3-3.5-0.9-3.8-2.6l-8.3-27.9c-0.5-1.6-3.3-4.5-3.5-6.2l-1.9-26.1c-0.6-3.5,1.7-6.8,5.1-7.4l1.7-0.3
		C496.2,365,499.5,367.3,500.1,370.8z"/>
	<g>
		<rect x="501.8" y="444.4" style="fill:#B3B3B3;" width="42.8" height="4.8"/>
		<rect x="501.8" y="446.1" style="fill:#4D4D4D;" width="28.6" height="1.4"/>
		<path style="fill:#FFFFFF;" d="M510.9,436.2L510.9,436.2c-1.1,0-0.8-0.8-0.8-0.8c0-1.1-1-3.4-1-3.4c1.1,0,3.9,0.9,3.9,2.1l0,0
			C513,435.3,512,436.2,510.9,436.2z"/>
		<path style="fill:#202133;" d="M532.6,444.4h-30.8v-9.6c0,0,4,1.1,5.3,0.9c1.4-0.2,5.3-2.5,5.3-2.5l20.2,8.4V444.4z"/>
		<path style="fill:#FFFFFF;" d="M544.6,444.4h-12v-2.8c0,0,4.2,0,7,0.9C541.4,443.1,544.6,444.4,544.6,444.4z"/>
		<path style="fill:#FFFFFF;" d="M515.4,437.1L515.4,437.1c-0.2-0.1-0.3-0.3-0.2-0.5l1.3-2.2c0.1-0.2,0.3-0.2,0.5-0.1l0,0
			c0.2,0.1,0.2,0.3,0.1,0.5l-1.3,2.2C515.8,437.1,515.6,437.2,515.4,437.1z"/>
		<path style="fill:#FFFFFF;" d="M518.3,438.1L518.3,438.1c-0.2-0.1-0.3-0.3-0.2-0.5l1.3-2.2c0.1-0.2,0.3-0.2,0.5-0.1l0,0
			c0.2,0.1,0.2,0.3,0.1,0.5l-1.3,2.2C518.7,438.2,518.5,438.2,518.3,438.1z"/>
		<path style="fill:#FFFFFF;" d="M521.6,439.3L521.6,439.3c-0.2-0.1-0.3-0.3-0.2-0.5l1.3-2.2c0.1-0.2,0.3-0.2,0.5-0.1l0,0
			c0.2,0.1,0.2,0.3,0.1,0.5l-1.3,2.2C522,439.3,521.8,439.4,521.6,439.3z"/>
		<path style="fill:#FFFFFF;" d="M524,440.4L524,440.4c-0.2-0.1-0.3-0.3-0.2-0.5l1.3-2.2c0.1-0.2,0.3-0.2,0.5-0.1l0,0
			c0.2,0.1,0.2,0.3,0.1,0.5l-1.3,2.2C524.4,440.4,524.2,440.5,524,440.4z"/>
		<path style="fill:#FFFFFF;" d="M512.3,443L512.3,443c-0.2,0-0.4-0.2-0.4-0.4l0.3-7.6c0-0.2,0.2-0.4,0.4-0.3l0,0
			c0.2,0,0.4,0.2,0.3,0.4l-0.3,7.6C512.7,442.8,512.5,443,512.3,443z"/>
	</g>
	<rect x="472.6" y="350.9" style="fill:#377AA7;" width="151.6" height="9.9"/>
	<rect x="515.9" y="360.6" style="fill:#2F284B;" width="108.2" height="4.9"/>
	<rect x="559.5" y="445.1" style="fill:#4D4D4D;" width="48.1" height="4.9"/>
	<line style="fill:none;stroke:#4D4D4D;stroke-width:8;stroke-miterlimit:10;" x1="604.6" y1="365.5" x2="604.6" y2="450.1"/>
	<line style="fill:none;stroke:#4D4D4D;stroke-width:8;stroke-miterlimit:10;" x1="445.9" y1="399.4" x2="445.9" y2="440.3"/>
	<line style="fill:none;stroke:#4D4D4D;stroke-width:3;stroke-miterlimit:10;" x1="445.9" y1="440.3" x2="445.9" y2="445.4"/>
	<path style="fill:#1A1A1A;" d="M419.6,449.8h-2.8c-1.2,0-2.2-1-2.2-2.2v-2.8c0-1.2,1-2.2,2.2-2.2h2.8c1.2,0,2.2,1,2.2,2.2v2.8
		C421.8,448.8,420.8,449.8,419.6,449.8z"/>
	<path style="fill:#1A1A1A;" d="M474.9,449.8h-2.8c-1.2,0-2.2-1-2.2-2.2v-2.8c0-1.2,1-2.2,2.2-2.2h2.8c1.2,0,2.2,1,2.2,2.2v2.8
		C477.1,448.9,476.1,449.8,474.9,449.8z"/>
	<path style="fill:#1A1A1A;" d="M447.3,450.8h-2.8c-1.2,0-2.2-1-2.2-2.2v-2.8c0-1.2,1-2.2,2.2-2.2h2.8c1.2,0,2.2,1,2.2,2.2v2.8
		C449.4,449.8,448.5,450.8,447.3,450.8z"/>
	<path style="fill:none;stroke:#4D4D4D;stroke-width:8;stroke-miterlimit:10;" d="M394.4,329.7c0,0-17.9,9.3-13.4,19.8
		c2,4.8,23.7,33.3,31.5,43.6c2.2,2.9,8,2,8,2"/>
	<path style="fill:#305287;" d="M410.4,296.1v56.8c0,3.5-2.9,6.5-6.5,6.5h-0.8c-3.5,0-6.5-2.9-6.5-6.5v-56.8c0-3.5,2.9-6.5,6.5-6.5
		h0.8C407.5,289.7,410.4,292.6,410.4,296.1z"/>
	<path style="fill:#352B4A;" d="M397.5,310.7v36c0,1.6-1.3,2.9-2.9,2.9h-0.4c-1.6,0-2.9-1.3-2.9-2.9v-36c0-1.6,1.3-2.9,2.9-2.9h0.4
		C396.2,307.8,397.5,309.1,397.5,310.7z"/>
	<path style="fill:#305287;" d="M475.8,399.4H419c-3.5,0-6.5-2.9-6.5-6.5v-0.8c0-3.5,2.9-6.5,6.5-6.5h56.8c3.5,0,6.5,2.9,6.5,6.5
		v0.8C482.2,396.5,479.3,399.4,475.8,399.4z"/>
	<path style="fill:none;stroke:#4D4D4D;stroke-width:6;stroke-miterlimit:10;" d="M552.2,289.9c0,0,18.5,6.2,17,16.2
		c-0.7,4.4-2.1,34.1-10,42.6c-2.2,2.4-20.8-0.1-20.8-0.1"/>
	<g>
		
			<rect x="507" y="286.7" transform="matrix(0.3038 -0.9527 0.9527 0.3038 104.5657 720.8586)" style="fill:#83CADF;" width="77" height="4.5"/>
		<path style="fill:#D6D6D5;" d="M564.4,264.2c0,0-4.6,21.6-6.8,28.5c-2.2,7-11,27.1-11,27.1l-8.1,5.1l22.2-69.6L564.4,264.2z"/>
		
			<rect x="506.4" y="286.7" transform="matrix(0.3038 -0.9527 0.9527 0.3038 105.6577 724.1273)" style="fill:#4D4D4D;" width="83.9" height="6.2"/>
	</g>
	<g>
		
			<rect x="495.3" y="345.8" transform="matrix(0.9689 -0.2473 0.2473 0.9689 -70.2099 135.8549)" style="fill:#D6D6D5;" width="21" height="3.3"/>
		
			<rect x="497.1" y="345.4" transform="matrix(0.9689 -0.2473 0.2473 0.9689 -69.8905 135.5702)" style="fill:#83CADF;" width="15.5" height="1.3"/>
		<circle style="fill:#D6D6D5;" cx="514.8" cy="347.6" r="3.2"/>
		<circle style="fill:#4D4D4D;" cx="514.8" cy="347.6" r="1.5"/>
	</g>
	
		<linearGradient id="SVGID_1_" gradientUnits="userSpaceOnUse" x1="444.2128" y1="274.3087" x2="564.3379" y2="274.3087" gradientTransform="matrix(1.8966 0.2859 0.2859 1.0912 -588.1359 -187.523)">
		<stop  offset="2.602486e-02" style="stop-color:#FFFFFF;stop-opacity:0"/>
		<stop  offset="0.1481" style="stop-color:#FAFDFF;stop-opacity:0.1253"/>
		<stop  offset="0.2894" style="stop-color:#ECF7FE;stop-opacity:0.2704"/>
		<stop  offset="0.4403" style="stop-color:#D5ECFD;stop-opacity:0.4254"/>
		<stop  offset="0.598" style="stop-color:#B4DEFB;stop-opacity:0.5872"/>
		<stop  offset="0.7609" style="stop-color:#8BCBF9;stop-opacity:0.7545"/>
		<stop  offset="0.9259" style="stop-color:#58B4F6;stop-opacity:0.9239"/>
		<stop  offset="1" style="stop-color:#3FA9F5"/>
	</linearGradient>
	<polygon style="opacity:0.4;fill:url(#SVGID_1_);" points="531.6,325 342.5,275.8 401.8,193 555,251.6 	"/>
	<g>
		<path style="fill:#293154;" d="M213.6,449.4H181c-9.3,0-16.8-7.5-16.8-16.8v-69.9c0-9.3,7.5-16.8,16.8-16.8h32.6
			c9.3,0,16.8,7.5,16.8,16.8v69.9C230.4,441.9,222.9,449.4,213.6,449.4z"/>
		<path style="fill:#42496C;" d="M207,439h-19.3c-9.3,0-16.8-7.5-16.8-16.8v-37.8c0-9.3,7.5-16.8,16.8-16.8H207
			c9.3,0,16.8,7.5,16.8,16.8v37.8C223.8,431.5,216.2,439,207,439z"/>
		<path style="fill:#293154;" d="M209.2,433.6h-23.8c-4.2,0-7.5-3.4-7.5-7.5v-18.5c0-4.2,3.4-7.5,7.5-7.5h23.8
			c4.2,0,7.5,3.4,7.5,7.5V426C216.8,430.2,213.4,433.6,209.2,433.6z"/>
		<path style="fill:#202133;" d="M216.8,407.5h-38.9l0,0c0-4.2,3.4-7.5,7.5-7.5h23.8C213.4,400,216.8,403.4,216.8,407.5L216.8,407.5
			z"/>
		<path style="fill:#202133;" d="M164.7,358h65.1c-0.8-3-2.6-6-5.1-8h-54.9C167.4,352,165.6,355,164.7,358z"/>
		<rect x="202.2" y="406.2" style="fill:#202133;" width="3.4" height="4.9"/>
		<rect x="184.9" y="340.8" style="fill:#293154;" width="3.4" height="5.9"/>
		<rect x="209.3" y="340.9" style="fill:#293154;" width="3.4" height="5.9"/>
		<rect x="178.6" y="378.7" style="fill:#202133;" width="40" height="4.7"/>
		<polygon style="fill:#202133;" points="212.7,340.9 184.9,340.9 191.9,335.3 205.7,335.3 		"/>
	</g>
	<polygon style="fill:#808080;" points="0,450 117.2,450 472.6,54.7 476.1,54.7 476.1,0 0,0 	"/>
	<polygon style="fill:#808080;" points="960,450 842,450 486.7,54.7 483.1,54.7 483.1,0 960,0 	"/>
	<rect x="476.1" style="fill:#808080;" width="7" height="23.2"/>
	<circle style="fill:#83CADF;" cx="479.6" cy="72.1" r="8"/>
	<polygon style="fill:#202133;" points="523.8,74.8 435.4,74.8 472.6,23.2 486.7,23.2 	"/>
	<g>
		<polygon style="fill:#495A74;" points="610.2,329.2 596.7,329.2 598.4,326.9 608.5,326.9 		"/>
		<polygon style="fill:#495A74;" points="610.2,329.2 596.7,329.2 598.4,326.9 608.5,326.9 		"/>
		<polygon style="fill:#596A8D;" points="608.4,351.2 598.3,351.2 597,331.2 609.8,331.2 		"/>
		<polygon style="fill:#26445B;" points="608.8,346.2 597.9,346.2 597.3,336.4 609.4,336.4 		"/>
		
			<rect x="601.9" y="339.8" transform="matrix(0.7071 -0.7071 0.7071 0.7071 -64.6032 526.5937)" style="fill:#596A8D;" width="3" height="3"/>
		<rect x="595.5" y="329" style="fill:#596A8D;" width="15.8" height="2.2"/>
		<polygon style="fill:#495A74;" points="609.8,331.2 597,331.2 597,332.1 609.7,332.1 		"/>
	</g>
	<g>
		<polygon style="fill:#495A74;" points="722.4,447.4 736.3,447.4 734.5,449.7 724.2,449.7 		"/>
		
			<rect x="721.2" y="445.2" transform="matrix(-1 8.972455e-11 -8.972455e-11 -1 1458.715 892.7964)" style="fill:#596A8D;" width="16.3" height="2.3"/>
	</g>
	<g>
		<polygon style="fill:#596A8D;" points="703.5,449.5 702.8,439.2 723.3,436.5 724.1,449.6 		"/>
		<polygon style="fill:#26445B;" points="708.7,449.6 708,438.4 718,437.1 718.8,449.6 		"/>
		
			<rect x="711.8" y="442.1" transform="matrix(0.7496 0.6619 -0.6619 0.7496 472.3497 -361.0942)" style="fill:#596A8D;" width="3.1" height="3.1"/>
		<polygon style="fill:#495A74;" points="724.1,450 723.2,436.1 722.4,436.2 723.3,450 		"/>
	</g>
</g>
<g id="Text">
	<rect x="135.4" y="39" style="fill:none;stroke:#305287;stroke-width:7;stroke-miterlimit:10;" width="716.6" height="154"/>
	<text transform="matrix(1 0 0 1 216.7684 163.1815)" style="fill:#FF1D25; font-family:'MrRobot'; font-size:90px;">DEVELOPER</text>
	<rect x="135.4" y="40" style="fill:none;stroke:#305287;stroke-width:7;stroke-miterlimit:10;" width="716.6" height="24.5"/>
</g>
</svg>
