<?xml version="1.0" encoding="utf-8"?>
<!-- Generator: Adobe Illustrator 19.2.1, SVG Export Plug-In . SVG Version: 6.00 Build 0)  -->
<!DOCTYPE svg PUBLIC "-//W3C//DTD SVG 1.1//EN" "http://www.w3.org/Graphics/SVG/1.1/DTD/svg11.dtd">
<svg version="1.1" xmlns="http://www.w3.org/2000/svg" xmlns:xlink="http://www.w3.org/1999/xlink" x="0px" y="0px"
	 viewBox="0 0 960 560" style="enable-background:new 0 0 960 560;" xml:space="preserve">
<g id="Trace">
</g>
<g id="Background">
	<rect style="fill:#6F7EB2;" width="960" height="559.8"/>
</g>
<g id="Main">
	<rect x="164.8" y="323.2" style="fill:#42496C;" width="177.4" height="238"/>
	<rect x="164.8" y="323.2" style="fill:#2F364C;" width="177.4" height="30.8"/>
	<rect x="164.8" y="396.9" style="fill:#2F364C;" width="177.4" height="30.8"/>
	<rect x="164.3" y="474.5" style="fill:#2F364C;" width="177.4" height="30.8"/>
	<rect x="164.8" y="323.2" style="fill:#377AA7;" width="177.4" height="9.1"/>
	<rect x="164.8" y="396.9" style="fill:#377AA7;" width="177.4" height="9.1"/>
	<rect x="164.8" y="474.5" style="fill:#377AA7;" width="177.4" height="9.1"/>
	<rect x="164.8" y="552.1" style="fill:#377AA7;" width="177.4" height="9.1"/>
	
		<rect x="50.3" y="437.7" transform="matrix(3.345661e-11 1 -1 3.345661e-11 611.5719 272.912)" style="fill:#377AA7;" width="238" height="9.1"/>
	
		<rect x="218.6" y="437.7" transform="matrix(3.345661e-11 1 -1 3.345661e-11 779.8635 104.6203)" style="fill:#377AA7;" width="238" height="9.1"/>
	<g>
		<g>
			<polygon style="fill:#79A78D;" points="518.9,418.3 519.7,415.7 516.2,402.6 507.3,392.6 499.1,391.7 493.4,401.8 510.3,408 			
				"/>
			
				<ellipse transform="matrix(0.3532 -0.9356 0.9356 0.3532 -54.6628 725.5471)" style="fill:#79A78D;" cx="497.4" cy="402.3" rx="4.4" ry="4.4"/>
			<polygon style="fill:#79A78D;" points="507.5,414.5 509.1,412.3 503.1,409.7 498.2,403.6 495.3,406.2 			"/>
		</g>
	</g>
	<path style="fill:#202133;stroke:#666666;stroke-miterlimit:10;" d="M419.2,341.2l27.1,46.9c2.4,4.2,1,9.5-3.2,11.9l-2,1.2
		c-4.2,2.4-9.5,1-11.9-3.2L402,351.1c-2.4-4.2-1-9.5,3.2-11.9l2-1.2C411.4,335.6,416.8,337,419.2,341.2z"/>
	<path style="fill:#202133;stroke:#666666;stroke-miterlimit:10;" d="M495.3,406.2l-57.7-2.1c-4.8-0.2-8.6-4.2-8.4-9l0-0.3
		c0.2-4.8,4.2-8.6,9-8.4l57.7,2.1c2.7,0.1,4.8,2.4,4.7,5l-0.3,8C500.2,404.2,497.9,406.3,495.3,406.2z"/>
	
		<rect x="593.7" y="460.5" transform="matrix(-0.7199 -0.6941 0.6941 -0.7199 754.6126 1232.2283)" style="fill:#4D4D4D;" width="64.5" height="6.8"/>
	
		<rect x="431.4" y="543.8" transform="matrix(-0.924 -0.3823 0.3823 -0.924 659.9704 1222.8727)" style="fill:#4D4D4D;" width="40.2" height="4.1"/>
	
		<rect x="392.9" y="543.3" transform="matrix(-0.9478 0.3188 -0.3188 -0.9478 977.6804 930.5494)" style="fill:#4D4D4D;" width="39.6" height="4.1"/>
	<g>
		<g>
			<polygon style="fill:#79A78D;" points="521.3,415.6 521.2,412.8 513.3,401.8 501.4,395.7 493.4,397.6 491.6,409.1 509.6,409 			
				"/>
			<circle style="fill:#79A78D;" cx="495.5" cy="408.2" r="4.4"/>
			<polygon style="fill:#79A78D;" points="509.4,416.1 510.1,413.5 503.5,413.1 496.7,409.2 494.9,412.6 			"/>
		</g>
	</g>
	<path style="fill:#79A78D;" d="M446.4,279.8c0,0,11.3,17.5,10.9,23.6c-0.5,6.1-0.6,8.1-0.6,8.1l3.8,12.1c0.3,0.9-0.1,1.9-0.9,2.4
		l-4.8,2.8l-1.9,11.8c-0.6,3.8-4.4,6.2-8.1,5.1l-3.2-0.9l-17.2-5.7l-10-1.5l-5.8-20.6l-11.2-24.8c0,0,9.1-10.8,20.2-13.3
		C428.8,276.4,446.4,279.8,446.4,279.8z"/>
	<polygon points="453.1,308.2 447.5,307.4 442.9,307.8 440.3,308.5 440.4,306.7 444,303.9 446.4,304 453.1,305.3 454.7,306.2 
		454.7,308 	"/>
	<path d="M447.5,310.9c0,1.7,1.3,3.1,2.9,3.1s2.9-1.4,2.9-3.1c0-1.7-1.4-1.7-2.9-2.1C448,308.3,447.5,309.3,447.5,310.9z"/>
	<path style="fill:#6A8278;" d="M421,310.8c0-0.1-0.5-1.4-1.6-1.6c-1.2-0.3-2.3,0.6-2.7,1.5c-0.6,1.1-0.1,2.2,0,2.4l3.9,9.5l1.2,4
		l2.7,2.9l-0.5-4.4L421,310.8z"/>
	<path d="M428,308.1v11.3l0.8,4l-4.5-4.2l-3.4-8.4l-4.2-0.2l0,7l-1.6,4.6v3.7l-0.6,5l-9.3-11.7l-6.3-3.3l2.3-22.6l7.5-12.3
		c0,0,4.7-9.6,4.5-7.4c-1.2,10.6,6.5,3.9,6.5,3.9s24.3-13.2,20.9-9.9c-2.3,2.2-4.1,5.9-4.1,5.9s10.8-3.3,8.7-2.4
		c-2.8,1.2-4.1,7.7-4.1,7.7s24.9-1.6,20-0.9c-12.7,2-9.3,5-9.3,5l7.9,4.4l-7.9-0.9c0,0,2.8,1.2,5,5.4c2.2,4.2,0.9,4.1-2.9,1.4
		c-3.9-2.6-15.3-4.1-15.3-4.1l5.1,5.4l-11.7-3.3l3.9,5.1l-8.1-1.6l4.5,7.2h-4.6l3.6,7.2L428,308.1z"/>
	<path style="fill:#202133;stroke:#4D4D4D;stroke-miterlimit:10;" d="M427.6,264.5c0,0-7.5,51.4-3.2,66.4
		c4.3,14.9-44.6,6.5-44.6,6.5S407.7,254.4,427.6,264.5z"/>
	<path style="fill:#202133;stroke:#4D4D4D;stroke-miterlimit:10;" d="M429,442.2h-41.2l-5-90.9l0.7-9.5c3.4-5.1,7.5-4.5,11.4-4.5
		l27.5,0.2l9.5,21.5L429,442.2z"/>
	<path style="fill:#202133;stroke:#666666;stroke-miterlimit:10;" d="M414.2,348.2l27.1,46.9c2.4,4.2,1,9.5-3.2,11.9l-2,1.2
		c-4.2,2.4-9.5,1-11.9-3.2L397,358.1c-2.4-4.2-1-9.5,3.2-11.9l2-1.2C406.4,342.6,411.8,344,414.2,348.2z"/>
	<path style="fill:#202133;stroke:#666666;stroke-miterlimit:10;" d="M490.3,413.2l-57.7-2.1c-4.8-0.2-8.6-4.2-8.4-9l0-0.3
		c0.2-4.8,4.2-8.6,9-8.4l57.7,2.1c2.7,0.1,4.8,2.4,4.7,5l-0.3,8C495.2,411.2,492.9,413.3,490.3,413.2z"/>
	<path style="fill:#202133;stroke:#4D4D4D;stroke-miterlimit:10;" d="M506.4,470.7l-103.8,3.4c-9.6,0-17.3-7.8-17.3-17.3v-9.5
		c0-2.8,2.2-5,5-5h103c7.2,0,13.1,5.9,13.1,13.1V470.7z"/>
	<path style="fill:#202133;stroke:#666666;stroke-miterlimit:10;" d="M506.3,451.7l14.8,82.5c0.4,2.4-1.2,4.8-3.6,5.2l-6.7,1.9
		c-2.4,0.4-4.8-1.2-5.2-3.6l-11.3-38.3c-0.7-2.3-4.5-6.1-4.9-8.5l-2.6-35.8c-0.9-4.7,2.3-9.3,7-10.1l2.3-0.4
		C500.9,443.8,505.5,446.9,506.3,451.7z"/>
	<g>
		<rect x="508.7" y="552.6" style="fill:#B3B3B3;" width="58.6" height="6.6"/>
		<rect x="508.7" y="554.9" style="fill:#4D4D4D;" width="39.2" height="1.9"/>
		<path style="fill:#FFFFFF;" d="M521.1,541.4L521.1,541.4c-1.6,0-1.1-1.1-1.1-1.1c0-1.6-1.4-4.6-1.4-4.6c1.6,0,5.4,1.3,5.4,2.8v0
			C523.9,540.1,522.7,541.4,521.1,541.4z"/>
		<path style="fill:#202133;" d="M550.8,552.6h-42.2v-13.2c0,0,5.5,1.5,7.3,1.3c2-0.3,7.2-3.4,7.2-3.4l27.6,11.5V552.6z"/>
		<path style="fill:#FFFFFF;" d="M567.2,552.6h-16.4v-3.8c0,0,5.7,0,9.6,1.3C562.9,550.8,567.2,552.6,567.2,552.6z"/>
		<path style="fill:#FFFFFF;" d="M527.3,542.5l-0.1-0.1c-0.2-0.1-0.3-0.4-0.2-0.6l1.8-3.1c0.1-0.2,0.4-0.3,0.6-0.2l0.1,0.1
			c0.2,0.1,0.3,0.4,0.2,0.6l-1.8,3.1C527.8,542.5,527.5,542.6,527.3,542.5z"/>
		<path style="fill:#FFFFFF;" d="M531.3,544l-0.1-0.1c-0.2-0.1-0.3-0.4-0.2-0.6l1.8-3.1c0.1-0.2,0.4-0.3,0.6-0.2l0.1,0.1
			c0.2,0.1,0.3,0.4,0.2,0.6l-1.8,3.1C531.8,544,531.5,544.1,531.3,544z"/>
		<path style="fill:#FFFFFF;" d="M535.8,545.6l-0.1-0.1c-0.2-0.1-0.3-0.4-0.2-0.6l1.8-3.1c0.1-0.2,0.4-0.3,0.6-0.2l0.1,0.1
			c0.2,0.1,0.3,0.4,0.2,0.6l-1.8,3.1C536.3,545.6,536.1,545.7,535.8,545.6z"/>
		<path style="fill:#FFFFFF;" d="M539.1,547l-0.1-0.1c-0.2-0.1-0.3-0.4-0.2-0.6l1.8-3.1c0.1-0.2,0.4-0.3,0.6-0.2l0.1,0.1
			c0.2,0.1,0.3,0.4,0.2,0.6l-1.8,3.1C539.6,547.1,539.3,547.2,539.1,547z"/>
		<path style="fill:#FFFFFF;" d="M523,550.6l-0.1,0c-0.3,0-0.5-0.2-0.4-0.5l0.4-10.5c0-0.3,0.2-0.5,0.5-0.4l0.1,0
			c0.3,0,0.5,0.2,0.4,0.5l-0.4,10.5C523.5,550.4,523.3,550.6,523,550.6z"/>
	</g>
	<rect x="468.6" y="424.5" style="fill:#377AA7;" width="207.6" height="13.5"/>
	<rect x="528" y="437.7" style="fill:#2F284B;" width="148.2" height="6.8"/>
	<rect x="587.7" y="553.5" style="fill:#4D4D4D;" width="65.9" height="6.8"/>
	<line style="fill:none;stroke:#4D4D4D;stroke-width:8;stroke-miterlimit:10;" x1="649.4" y1="444.5" x2="649.4" y2="558"/>
	<line style="fill:none;stroke:#4D4D4D;stroke-width:8;stroke-miterlimit:10;" x1="432" y1="490.9" x2="432" y2="546.9"/>
	<line style="fill:none;stroke:#4D4D4D;stroke-width:3;stroke-miterlimit:10;" x1="432" y1="546.9" x2="432" y2="553.9"/>
	<path style="fill:#1A1A1A;" d="M396.9,559.9h-5.5c-1.2,0-2.2-1-2.2-2.2v-5.5c0-1.2,1-2.2,2.2-2.2h5.5c1.2,0,2.2,1,2.2,2.2v5.5
		C399.1,558.9,398.1,559.9,396.9,559.9z"/>
	<path style="fill:#1A1A1A;" d="M472.6,560h-5.5c-1.2,0-2.2-1-2.2-2.2v-5.5c0-1.2,1-2.2,2.2-2.2h5.5c1.2,0,2.2,1,2.2,2.2v5.5
		C474.7,559,473.8,560,472.6,560z"/>
	<path style="fill:#1A1A1A;" d="M434.7,561.3h-5.5c-1.2,0-2.2-1-2.2-2.2v-5.5c0-1.2,1-2.2,2.2-2.2h5.5c1.2,0,2.2,1,2.2,2.2v5.5
		C436.9,560.3,435.9,561.3,434.7,561.3z"/>
	<path style="fill:none;stroke:#4D4D4D;stroke-width:8;stroke-miterlimit:10;" d="M361.5,395.5c0,0-24.4,12.7-18.3,27.2
		c2.8,6.6,32.4,45.7,43.2,59.8c3.1,4,11,2.7,11,2.7"/>
	<path style="fill:#305287;" d="M383.4,349.1v78.4c0,4.7-3.8,8.5-8.5,8.5h-1.8c-4.7,0-8.5-3.8-8.5-8.5v-78.4c0-4.7,3.8-8.5,8.5-8.5
		h1.8C379.6,340.6,383.4,344.5,383.4,349.1z"/>
	<path style="fill:#352B4A;" d="M365.7,369.7v48.7c0,2.3-1.9,4.2-4.2,4.2l0,0c-2.3,0-4.2-1.9-4.2-4.2v-48.7c0-2.3,1.9-4.2,4.2-4.2
		l0,0C363.8,365.4,365.7,367.3,365.7,369.7z"/>
	<path style="fill:#305287;" d="M473.3,490.9h-78.4c-4.7,0-8.5-3.8-8.5-8.5v-1.8c0-4.7,3.8-8.5,8.5-8.5h78.4c4.7,0,8.5,3.8,8.5,8.5
		v1.8C481.8,487.1,478,490.9,473.3,490.9z"/>
	<path style="fill:none;stroke:#4D4D4D;stroke-width:6;stroke-miterlimit:10;" d="M577.7,340.9c0,0,25.4,8.4,23.3,22.2
		c-0.9,6-2.9,46.8-13.7,58.3c-3.1,3.3-28.6-0.2-28.6-0.2"/>
	<g>
		
			<rect x="515.8" y="336.5" transform="matrix(0.3038 -0.9527 0.9527 0.3038 72.3013 778.026)" style="fill:#83CADF;" width="105.4" height="6.1"/>
		<path style="fill:#D6D6D5;" d="M594.4,305.8c0,0-6.3,29.5-9.3,39.1c-3,9.5-15,37.2-15,37.2L559,389l30.4-95.3L594.4,305.8z"/>
		
			<rect x="514.9" y="336.5" transform="matrix(0.3038 -0.9527 0.9527 0.3038 73.7969 782.5029)" style="fill:#4D4D4D;" width="114.9" height="8.5"/>
	</g>
	<g>
		
			<rect x="499.7" y="417.5" transform="matrix(0.9689 -0.2473 0.2473 0.9689 -87.8322 140.1507)" style="fill:#D6D6D5;" width="28.8" height="4.5"/>
		
			<rect x="502.1" y="417" transform="matrix(0.9689 -0.2473 0.2473 0.9689 -87.3948 139.7607)" style="fill:#83CADF;" width="21.2" height="1.7"/>
		<circle style="fill:#D6D6D5;" cx="526.4" cy="420" r="4.4"/>
		<circle style="fill:#4D4D4D;" cx="526.4" cy="420" r="2.1"/>
	</g>
	
		<linearGradient id="SVGID_1_" gradientUnits="userSpaceOnUse" x1="416.9578" y1="315.5012" x2="581.4832" y2="315.5012" gradientTransform="matrix(1.8966 0.2859 0.2859 1.0912 -603.8597 -192.5364)">
		<stop  offset="2.602486e-02" style="stop-color:#FFFFFF;stop-opacity:0"/>
		<stop  offset="0.1481" style="stop-color:#FAFDFF;stop-opacity:0.1253"/>
		<stop  offset="0.2894" style="stop-color:#ECF7FE;stop-opacity:0.2704"/>
		<stop  offset="0.4403" style="stop-color:#D5ECFD;stop-opacity:0.4254"/>
		<stop  offset="0.598" style="stop-color:#B4DEFB;stop-opacity:0.5872"/>
		<stop  offset="0.7609" style="stop-color:#8BCBF9;stop-opacity:0.7545"/>
		<stop  offset="0.9259" style="stop-color:#58B4F6;stop-opacity:0.9239"/>
		<stop  offset="1" style="stop-color:#3FA9F5"/>
	</linearGradient>
	<polygon style="opacity:0.4;fill:url(#SVGID_1_);" points="549.5,389 290.4,321.6 371.7,208.2 581.5,288.5 	"/>
	<g>
		<path style="fill:#293154;" d="M213.6,559.4H181c-9.3,0-16.8-7.5-16.8-16.8v-69.9c0-9.3,7.5-16.8,16.8-16.8h32.6
			c9.3,0,16.8,7.5,16.8,16.8v69.9C230.4,551.9,222.9,559.4,213.6,559.4z"/>
		<path style="fill:#42496C;" d="M207,549h-19.3c-9.3,0-16.8-7.5-16.8-16.8v-37.8c0-9.3,7.5-16.8,16.8-16.8H207
			c9.3,0,16.8,7.5,16.8,16.8v37.8C223.8,541.5,216.2,549,207,549z"/>
		<path style="fill:#293154;" d="M209.2,543.6h-23.8c-4.2,0-7.5-3.4-7.5-7.5v-18.5c0-4.2,3.4-7.5,7.5-7.5h23.8
			c4.2,0,7.5,3.4,7.5,7.5V536C216.8,540.2,213.4,543.6,209.2,543.6z"/>
		<path style="fill:#202133;" d="M216.8,517.5h-38.9l0,0c0-4.2,3.4-7.5,7.5-7.5h23.8C213.4,510,216.8,513.4,216.8,517.5L216.8,517.5
			z"/>
		<path style="fill:#202133;" d="M164.7,468h65.1c-0.8-3-2.6-6-5.1-8h-54.9C167.4,462,165.6,465,164.7,468z"/>
		<rect x="202.2" y="516.2" style="fill:#202133;" width="3.4" height="4.9"/>
		<rect x="184.9" y="450.8" style="fill:#293154;" width="3.4" height="5.9"/>
		<rect x="209.3" y="450.9" style="fill:#293154;" width="3.4" height="5.9"/>
		<rect x="178.6" y="488.7" style="fill:#202133;" width="40" height="4.7"/>
		<polygon style="fill:#202133;" points="212.7,450.9 184.9,450.9 191.9,445.3 205.7,445.3 		"/>
	</g>
	<polygon style="fill:#808080;" points="0,558.3 117.2,561.1 472.6,68.2 476.1,68.2 476.1,0 0,3 	"/>
	<polygon style="fill:#808080;" points="959.3,558.3 842,561.1 486.7,68.2 483.1,68.2 483.1,0 960,0 	"/>
	<rect x="476.1" style="fill:#808080;" width="7" height="68.2"/>
	<circle style="fill:#83CADF;" cx="479.6" cy="117.1" r="8"/>
	<polygon style="fill:#202133;" points="523.8,119.8 435.4,119.8 472.6,68.2 486.7,68.2 	"/>
	<g>
		<polygon style="fill:#495A74;" points="657.1,394.7 638.6,394.7 641,391.6 654.7,391.6 		"/>
		<polygon style="fill:#495A74;" points="657.1,394.7 638.6,394.7 641,391.6 654.7,391.6 		"/>
		<polygon style="fill:#596A8D;" points="654.6,424.9 640.8,424.9 639,397.5 656.5,397.5 		"/>
		<polygon style="fill:#26445B;" points="655.1,418 640.3,418 639.4,404.6 656,404.6 		"/>
		
			<rect x="645.7" y="409.3" transform="matrix(0.7071 -0.7071 0.7071 0.7071 -101.1257 578.4731)" style="fill:#596A8D;" width="4.1" height="4.1"/>
		<rect x="637" y="394.5" style="fill:#596A8D;" width="21.7" height="3.1"/>
		<polygon style="fill:#495A74;" points="656.5,397.5 639,397.5 639,398.7 656.4,398.7 		"/>
	</g>
	<g>
		<polygon style="fill:#495A74;" points="723.2,556.9 741.7,556.9 739.3,560 725.5,560 		"/>
		
			<rect x="721.6" y="554.1" transform="matrix(-1 8.978050e-11 -8.978050e-11 -1 1464.8306 1111.2255)" style="fill:#596A8D;" width="21.7" height="3.1"/>
	</g>
	<g>
		<polygon style="fill:#596A8D;" points="697.9,559.7 697.1,546 724.3,542.4 725.4,559.9 		"/>
		<polygon style="fill:#26445B;" points="704.8,559.8 703.9,545 717.3,543.3 718.3,559.9 		"/>
		
			<rect x="709.1" y="549.9" transform="matrix(0.7496 0.6619 -0.6619 0.7496 543.4767 -332.47)" style="fill:#596A8D;" width="4.1" height="4.1"/>
		<polygon style="fill:#495A74;" points="725.4,560.4 724.3,541.9 723.1,542 724.3,560.4 		"/>
	</g>
</g>
<g id="Text">
	<rect x="135.4" y="33.2" style="fill:none;stroke:#305287;stroke-width:7;stroke-miterlimit:10;" width="716.6" height="214.8"/>
	<text transform="matrix(1 0 0 1 165.0537 193.0721)" style="fill:#FF1D25; font-family:'MrRobot'; font-size:104.05px;">DEVELOPER</text>
	<rect x="135.4" y="33.2" style="fill:none;stroke:#305287;stroke-width:7;stroke-miterlimit:10;" width="716.6" height="27.2"/>
</g>
</svg>
