<?xml version="1.0" encoding="utf-8"?>
<!-- Generator: Adobe Illustrator 19.2.1, SVG Export Plug-In . SVG Version: 6.00 Build 0)  -->
<!DOCTYPE svg PUBLIC "-//W3C//DTD SVG 1.1//EN" "http://www.w3.org/Graphics/SVG/1.1/DTD/svg11.dtd">
<svg version="1.1" xmlns="http://www.w3.org/2000/svg" xmlns:xlink="http://www.w3.org/1999/xlink" x="0px" y="0px"
	 viewBox="0 0 1280 450" style="enable-background:new 0 0 1280 450;" xml:space="preserve">
<style type="text/css">
	.st0{fill:#202133;}
	.st1{fill:#0A0615;}
	.st2{fill:#377AA7;}
	.st3{fill:#42496C;}
	.st4{fill:#293154;}
	.st5{fill:#376A74;}
	.st6{fill:#563257;}
	.st7{fill:#53275A;}
	.st8{fill:#CC3F58;}
	.st9{fill:#EF784C;}
	.st10{fill:#9E2E63;}
	.st11{fill:#79A78D;}
	.st12{fill:#6A8278;}
	.st13{fill:#F8BE5C;}
	.st14{fill:#FE9247;}
	.st15{fill:#2F364C;}
	.st16{fill:#4D4D4D;}
	.st17{fill:#202133;stroke:#4D4D4D;stroke-miterlimit:10;}
	.st18{fill:#202133;stroke:#666666;stroke-miterlimit:10;}
	.st19{fill:#B3B3B3;}
	.st20{fill:#FFFFFF;}
	.st21{fill:#2F284B;}
	.st22{fill:none;stroke:#4D4D4D;stroke-width:8;stroke-miterlimit:10;}
	.st23{fill:none;stroke:#4D4D4D;stroke-width:3;stroke-miterlimit:10;}
	.st24{fill:#1A1A1A;}
	.st25{fill:#305287;}
	.st26{fill:#495A74;}
	.st27{fill:#596A8D;}
	.st28{fill:#26445B;}
	.st29{fill:#EED8C2;}
	.st30{clip-path:url(#SVGID_2_);fill:#9E2E63;}
	.st31{clip-path:url(#SVGID_2_);fill:#CC3F58;}
	.st32{clip-path:url(#SVGID_2_);fill:#EF784C;}
	.st33{clip-path:url(#SVGID_2_);}
	.st34{clip-path:url(#SVGID_2_);fill:#F8BE5C;}
	.st35{clip-path:url(#SVGID_2_);fill:#FE9247;}
	.st36{clip-path:url(#SVGID_2_);fill:#FFFFFF;}
	.st37{clip-path:url(#SVGID_2_);fill:#E8AE28;}
	.st38{fill:none;stroke:#FF0000;stroke-width:2;stroke-miterlimit:10;}
	.st39{fill:none;stroke:#FF0000;stroke-width:7;stroke-miterlimit:10;}
	.st40{fill:none;stroke:#CC0000;stroke-width:6;stroke-miterlimit:10;}
	.st41{fill:none;stroke:#CC0000;stroke-width:4;stroke-miterlimit:10;}
	.st42{fill:#FF0000;}
	.st43{fill:none;stroke:#CC0000;stroke-miterlimit:10;}
	.st44{fill:#CC0000;}
	.st45{opacity:0;fill:none;stroke:#FF0000;stroke-width:2;stroke-miterlimit:10;}
	.st46{fill:none;stroke:#FF0000;stroke-width:0.75;stroke-miterlimit:10;}
	.st47{fill:#B63748;}
	.st48{fill:#D05146;}
	.st49{clip-path:url(#SVGID_2_);fill:#0096DD;}
	.st50{clip-path:url(#SVGID_2_);fill:#C6752A;}
	.st51{clip-path:url(#SVGID_2_);fill:#D8942C;}
	.st52{clip-path:url(#SVGID_2_);fill:#B63748;}
	.st53{clip-path:url(#SVGID_2_);fill:#D05146;}
	.st54{clip-path:url(#SVGID_2_);fill:#808080;}
	.st55{clip-path:url(#SVGID_2_);fill:none;stroke:#ED1C24;stroke-miterlimit:10;}
	.st56{fill:#FFFA3D;}
	.st57{fill:#ED1C24;}
	.st58{fill:#FF6547;}
	.st59{fill:#30386C;}
	.st60{fill:#CCCCCC;}
	.st61{clip-path:url(#SVGID_2_);fill:#C7B299;stroke:#042745;stroke-miterlimit:10;}
	.st62{clip-path:url(#SVGID_4_);fill:#042745;stroke:#042745;stroke-width:0.25;stroke-miterlimit:10;}
	.st63{clip-path:url(#SVGID_6_);fill:#042745;stroke:#042745;stroke-width:0.25;stroke-miterlimit:10;}
	.st64{clip-path:url(#SVGID_2_);fill:#FFFFFF;stroke:#EED8C2;stroke-miterlimit:10;}
	.st65{clip-path:url(#SVGID_2_);fill:#963037;}
	.st66{clip-path:url(#SVGID_2_);fill:#C5A17F;stroke:#042745;stroke-miterlimit:10;}
	.st67{fill:#BF413F;}
	.st68{clip-path:url(#SVGID_2_);fill:#BF413F;}
	.st69{clip-path:url(#SVGID_2_);fill:none;}
	.st70{clip-path:url(#SVGID_2_);fill:#040066;}
	.st71{fill:#040066;}
	.st72{fill:#4444C6;}
	.st73{clip-path:url(#SVGID_2_);fill:#062644;}
	.st74{fill:#062644;}
	.st75{clip-path:url(#SVGID_2_);fill:#4D4D4D;}
	.st76{clip-path:url(#SVGID_8_);fill:none;}
	.st77{clip-path:url(#SVGID_8_);fill:#042745;stroke:#042745;stroke-width:0.25;stroke-miterlimit:10;}
	.st78{clip-path:url(#SVGID_8_);fill:#042745;}
	.st79{clip-path:url(#SVGID_2_);fill:#FFFFFF;stroke:#042745;stroke-miterlimit:10;}
	.st80{clip-path:url(#SVGID_10_);fill:#042745;stroke:#042745;stroke-width:0.25;stroke-miterlimit:10;}
	.st81{clip-path:url(#SVGID_2_);fill:#052748;}
	.st82{clip-path:url(#SVGID_2_);fill:#042745;}
	.st83{clip-path:url(#SVGID_12_);fill:#EED8C2;}
	.st84{clip-path:url(#SVGID_2_);fill:#C5D7CB;stroke:#C65F54;stroke-miterlimit:10;}
	.st85{clip-path:url(#SVGID_2_);fill:none;stroke:#C65F54;stroke-width:0.75;stroke-miterlimit:10;}
	.st86{fill:#CF2F17;stroke:#FAFFC0;stroke-width:2;stroke-miterlimit:10;}
	.st87{font-family:'GothamBlack';}
	.st88{font-size:90px;}
	.st89{fill:none;stroke:#C65F54;stroke-width:0.75;stroke-linecap:round;stroke-miterlimit:10;}
	.st90{fill:none;stroke:#C65F54;stroke-width:0.75;stroke-linecap:round;stroke-linejoin:bevel;stroke-miterlimit:10;}
	.st91{clip-path:url(#SVGID_2_);fill:none;stroke:#C65F54;stroke-width:0.75;stroke-linecap:round;stroke-miterlimit:10;}
</style>
<g id="Background">
</g>
<g id="Trace">
</g>
<g id="Main">
</g>
<g id="Text">
</g>
<g id="Layer_5">
	<g>
		<defs>
			<rect id="SVGID_1_" width="1280" height="449.9"/>
		</defs>
		<clipPath id="SVGID_2_">
			<use xlink:href="#SVGID_1_"  style="overflow:visible;"/>
		</clipPath>
		<path class="st30" d="M1280,0H0v449.7h1280c0-39.1,0-78.2,0-117.2C1280,221.6,1280,110.8,1280,0z"/>
		<path class="st31" d="M154.9,85.4c0,45-36.5,81.4-81.4,81.4S-8,130.4-8,85.4S28.4,4,73.4,4S154.9,40.4,154.9,85.4z"/>
		<circle class="st31" cx="806.1" cy="114.2" r="97.8"/>
		<path class="st31" d="M959.9-53.6c-11.4,7.3-78.6,50.8-77,91.7c0.2,4,1.2,13.5-3.3,24.6c-6,14.7-20.3,28.6-36,31.1
			c-18.3,2.9-33.9-10.4-52.4-27.8c-59.2-55.7-63.7-60.1-88-61.7c-25.6-1.7-26.6,6.4-69.2,28.9c-53.9,28.6-90.3-18-160.5,6.6
			c-50.3,17.6-57.3,50.4-83.5,44.2c-44.4-10.4-39.6-108-88.5-117.9c-14.3-2.9-17.4,4.9-68.8,6.6c-19.6,0.6-31.8-0.1-44.2-6.6
			c-19.2-10-22.5-25.1-27.8-24.6C144-56.8,116.1,94.1,155.6,179c116.8,251.1,964.2,227.7,1064.8-32.8c31.4-81.3-1.4-208-72.1-242.4
			C1078.5-130.2,983-68.6,959.9-53.6z"/>
		<rect x="631.3" y="197.6" class="st32" width="545.3" height="126"/>
		<rect x="274" y="284.6" class="st32" width="213.4" height="108.2"/>
		<path class="st32" d="M218.9,135.8c0,45-36.5,81.4-81.4,81.4S56,180.8,56,135.8s36.5-81.4,81.4-81.4S218.9,90.8,218.9,135.8z"/>
		<path class="st32" d="M137.5,158.5c0,45-36.5,81.4-81.4,81.4s-81.4-36.5-81.4-81.4S11,77,56,77S137.5,113.5,137.5,158.5z"/>
		<path class="st32" d="M326.9,184.6c42-16.2-36.5,81.4-81.4,81.4S164,229.5,164,184.6S164.8,40.5,191,77
			C219.6,116.8,292,198,326.9,184.6z"/>
		<path class="st32" d="M509.2,135.2c29.4,63.9-11,145.2-90.2,181.6s-145-1.9-196.6-49.6c-40.6-37.6-44.6,109.8,126.8-142.8
			C398.2,52.2,479.9,71.3,509.2,135.2z"/>
		<path class="st32" d="M902.3,89.2c-27.9,47.2-101.1,111-155.6,48.7L738,361l349.3-20L902.3,89.2z"/>
		<path class="st32" d="M1120,201.2c0,63.6-45.3,42.4-109,42.4S895.9,192,895.9,128.4S947.4,13.2,1011,13.2S1120,137.5,1120,201.2z"
			/>
		<circle class="st32" cx="607.3" cy="168.2" r="149.5"/>
		<path class="st32" d="M1193.5,77.1c0,45-36.5,81.4-81.4,81.4s-81.4-36.5-81.4-81.4s36.5-81.4,81.4-81.4S1193.5,32.1,1193.5,77.1z"
			/>
		<path class="st32" d="M1265.5,132.3c12.4,26.5-14.7,65.4-60.5,86.8s-93,17.2-105.4-9.3c-12.4-26.5,14.7-65.4,60.5-86.8
			S1253.1,105.7,1265.5,132.3z"/>
		<g class="st33">
			<circle class="st13" cx="389.7" cy="283.1" r="36.5"/>
			<path class="st13" d="M392,309.7c0,14.8-46.5,10-61.3,10c-14.8,0-26.8-12-26.8-26.8c0-14.8,12-26.8,26.8-26.8
				c6.1,0,22-1.7,31,4.8C374.6,280.3,392,301,392,309.7z"/>
		</g>
		<path class="st34" d="M315.5,246.6c0,6.4-5.2,11.6-11.6,11.6s-11.6-5.2-11.6-11.6S297.6,235,304,235S315.5,240.2,315.5,246.6z"/>
		<path class="st34" d="M364.8,258.3c0,8.5-6.9,15.5-15.5,15.5s-15.5-6.9-15.5-15.5c0-8.5,6.9-15.5,15.5-15.5
			S364.8,249.7,364.8,258.3z"/>
		<circle class="st35" cx="862.1" cy="266" r="115.2"/>
		<ellipse class="st35" cx="565.6" cy="339.3" rx="157.8" ry="127.3"/>
		<ellipse class="st35" cx="335.6" cy="299.3" rx="157.8" ry="127.3"/>
		
			<ellipse transform="matrix(0.6785 -0.7346 0.7346 0.6785 -193.8397 219.5936)" class="st35" cx="153.9" cy="331.2" rx="127.3" ry="157.8"/>
		<ellipse class="st35" cx="407.8" cy="358.1" rx="92.1" ry="84.3"/>
		<path class="st35" d="M1058.8,269.5c0,45-36.5,81.4-81.4,81.4c-45,0-81.4-36.5-81.4-81.4s36.5-81.4,81.4-81.4
			C1022.3,188,1058.8,224.5,1058.8,269.5z"/>
		<path class="st35" d="M1153.6,350.9c0,45-36.5,81.4-81.4,81.4c-45,0-81.4-36.5-81.4-81.4s36.5-81.4,81.4-81.4
			C1117.1,269.5,1153.6,306,1153.6,350.9z"/>
		<path class="st35" d="M833.3,201.2c-27.9,47.2-101.1,111-155.6,48.7L669,473l349.3-20L833.3,201.2z"/>
		<path class="st35" d="M340.9,300.2c-34.4,47.2-148.6,117.9-185.5,101.2l6.5,48.3l435.4,0.3L340.9,300.2z"/>
		<path class="st35" d="M1052.7,215.7c6.1-2.5,177.1,18.6,202.2-48.1S1280,53.4,1280,53.4V328L1052.7,215.7z"/>
		<path class="st34" d="M1280,449.9l-1027.2-0.2l0.1,0.3L0,449.9c0,0,0-151.8,0-184c0,33.9,112.9,91.7,179.5,119.3
			c18.3,7.6,39.1,6.7,56.6-2.7c61.2-32.8,162.9-84.3,199.6-85c67.2-1.4,90.8,55.6,144.3,42.8c46.3-11.1,67-73.4,123.4-78.8
			c91.6-8.8,126.4,30.4,137.5,36c24.5,12.3,23.9,16.3,35.2,17.4c62.4,6.3,143.6-128,220.4-130c44.4-1.1,66.4-10.8,183.4,89.7V449.9z
			"/>
		<path class="st35" d="M137.5,239.9c0,45-36.5,81.4-81.4,81.4s-81.4-36.5-81.4-81.4S11,158.5,56,158.5S137.5,194.9,137.5,239.9z"/>
		<g class="st33">
			<circle class="st14" cx="1106.3" cy="131.5" r="36.5"/>
			<path class="st14" d="M1108.6,158.1c0,14.8-46.5,10-61.3,10s-26.8-12-26.8-26.8s12-26.8,26.8-26.8c6.1,0,22-1.7,31,4.8
				C1091.2,128.7,1108.6,149.4,1108.6,158.1z"/>
		</g>
		<path class="st35" d="M1032.1,95c0,6.4-5.2,11.6-11.6,11.6c-6.4,0-11.6-5.2-11.6-11.6s5.2-11.6,11.6-11.6
			C1026.9,83.4,1032.1,88.6,1032.1,95z"/>
		<path class="st36" d="M1034.4,416.3c0-21.2,15.5-38.5,34.6-38.5c19.1,0,34.6,17.2,34.6,38.5"/>
		<path class="st37" d="M735.1,440H517.8c-6.6,0-12-5.4-12-12v0c0-6.6,5.4-12,12-12h217.4c6.6,0,12,5.4,12,12v0
			C747.1,434.6,741.7,440,735.1,440z"/>
		<g class="st33">
			<path class="st38" d="M729,206c0,154,341,153,341,0"/>
			<g>
				<rect x="729.1" y="212.2" class="st39" width="25.7" height="123.3"/>
				<rect x="729.1" y="335.5" class="st40" width="25.7" height="70"/>
				<rect x="729.1" y="212.2" class="st39" width="25.7" height="28.3"/>
				<rect x="729.1" y="241.2" class="st39" width="25.7" height="28.3"/>
				<rect x="729.1" y="271.2" class="st39" width="25.7" height="28.3"/>
				<rect x="729.1" y="339.7" class="st41" width="25.7" height="20.1"/>
				<rect x="729.1" y="359.2" class="st41" width="25.7" height="20.1"/>
				<rect x="725.6" y="202.9" class="st42" width="5.9" height="5.9"/>
				<rect x="752.5" y="202.9" class="st42" width="5.9" height="5.9"/>
				<line class="st43" x1="731.3" y1="341" x2="752.3" y2="357.8"/>
				<line class="st43" x1="752.3" y1="341" x2="731.3" y2="357.8"/>
				<line class="st43" x1="731.3" y1="361" x2="752.3" y2="377.8"/>
				<line class="st43" x1="752.3" y1="361" x2="731.3" y2="377.8"/>
			</g>
			<g>
				<rect x="1069.1" y="212.2" class="st39" width="25.7" height="123.3"/>
				<rect x="1069.1" y="335.5" class="st40" width="25.7" height="70"/>
				<rect x="1069.1" y="212.2" class="st39" width="25.7" height="28.3"/>
				<rect x="1069.1" y="241.2" class="st39" width="25.7" height="28.3"/>
				<rect x="1069.1" y="271.2" class="st39" width="25.7" height="28.3"/>
				<rect x="1069.1" y="339.7" class="st41" width="25.7" height="20.1"/>
				<rect x="1069.1" y="359.2" class="st41" width="25.7" height="20.1"/>
				<rect x="1065.6" y="202.9" class="st42" width="5.9" height="5.9"/>
				<rect x="1092.5" y="202.9" class="st42" width="5.9" height="5.9"/>
				<line class="st43" x1="1071.3" y1="341" x2="1092.3" y2="357.8"/>
				<line class="st43" x1="1092.3" y1="341" x2="1071.3" y2="357.8"/>
				<line class="st43" x1="1071.3" y1="361" x2="1092.3" y2="377.8"/>
				<line class="st43" x1="1092.3" y1="361" x2="1071.3" y2="377.8"/>
			</g>
			<g>
				<rect x="546" y="329.8" class="st42" width="734" height="11.5"/>
				<rect x="546" y="335.5" class="st44" width="734" height="5.7"/>
			</g>
			<path class="st45" d="M755,206c0,154,341,153,341,0"/>
			<path class="st38" d="M755,206c0,154,341,153,341,0"/>
			<path class="st38" d="M1069,206c0,154,341,153,341,0"/>
			<path class="st38" d="M1095,206c0,154,341,153,341,0"/>
			<path class="st38" d="M415,206c0,154,341,153,341,0"/>
			<path class="st38" d="M387,206c0,154,341,153,341,0"/>
			<line class="st46" x1="1070.9" y1="281.2" x2="1070.9" y2="329.8"/>
			<line class="st46" x1="930.8" y1="319.3" x2="930.8" y2="329.8"/>
			<line class="st46" x1="918.8" y1="321" x2="918.8" y2="329.8"/>
			<line class="st46" x1="906.8" y1="321" x2="906.8" y2="329.8"/>
			<line class="st46" x1="942.8" y1="317.1" x2="942.8" y2="329.8"/>
			<line class="st46" x1="954.8" y1="314.7" x2="954.8" y2="329.8"/>
			<line class="st46" x1="966.8" y1="312.2" x2="966.8" y2="329.8"/>
			<line class="st46" x1="978.8" y1="309.4" x2="978.8" y2="329.8"/>
			<line class="st46" x1="990.8" y1="304.8" x2="990.8" y2="329.8"/>
			<line class="st46" x1="1002.8" y1="299.6" x2="1002.8" y2="329.8"/>
			<line class="st46" x1="1014.8" y1="293.3" x2="1014.8" y2="329.8"/>
			<line class="st46" x1="1026.8" y1="285.4" x2="1026.8" y2="329.8"/>
			<line class="st46" x1="1038.8" y1="275.9" x2="1038.8" y2="329.8"/>
			<line class="st46" x1="1050.8" y1="262.7" x2="1050.8" y2="329.8"/>
			<line class="st46" x1="1062.8" y1="243.2" x2="1062.8" y2="329.8"/>
			<line class="st46" x1="870.8" y1="319.3" x2="870.8" y2="329.8"/>
			<line class="st46" x1="858.8" y1="317.1" x2="858.8" y2="329.8"/>
			<line class="st46" x1="846.8" y1="315.4" x2="846.8" y2="329.8"/>
			<line class="st46" x1="834.8" y1="313.1" x2="834.8" y2="329.8"/>
			<line class="st46" x1="822.8" y1="310.4" x2="822.8" y2="329.8"/>
			<line class="st46" x1="810.8" y1="306" x2="810.8" y2="329.8"/>
			<line class="st46" x1="798.8" y1="301" x2="798.8" y2="329.8"/>
			<line class="st46" x1="786.8" y1="295.1" x2="786.8" y2="329.8"/>
			<line class="st46" x1="774.8" y1="287.6" x2="774.8" y2="329.8"/>
			<line class="st46" x1="762.8" y1="278.6" x2="762.8" y2="329.8"/>
			<line class="st46" x1="731.8" y1="243.2" x2="731.8" y2="329.8"/>
			<line class="st46" x1="930.8" y1="319.3" x2="930.8" y2="329.8"/>
			<line class="st46" x1="918.8" y1="321" x2="918.8" y2="329.8"/>
			<line class="st46" x1="906.8" y1="321" x2="906.8" y2="329.8"/>
			<line class="st46" x1="894.8" y1="321" x2="894.8" y2="329.8"/>
			<line class="st46" x1="882.8" y1="321" x2="882.8" y2="329.8"/>
			<line class="st46" x1="870.8" y1="321" x2="870.8" y2="329.8"/>
			<line class="st46" x1="942.8" y1="317.1" x2="942.8" y2="329.8"/>
			<line class="st46" x1="954.8" y1="314.7" x2="954.8" y2="329.8"/>
			<line class="st46" x1="966.8" y1="312.2" x2="966.8" y2="329.8"/>
			<line class="st46" x1="978.8" y1="309.4" x2="978.8" y2="329.8"/>
			<line class="st46" x1="990.8" y1="304.8" x2="990.8" y2="329.8"/>
			<line class="st46" x1="1002.8" y1="299.6" x2="1002.8" y2="329.8"/>
			<line class="st46" x1="1014.8" y1="293.3" x2="1014.8" y2="329.8"/>
			<line class="st46" x1="1026.8" y1="285.4" x2="1026.8" y2="329.8"/>
			<line class="st46" x1="1038.8" y1="275.9" x2="1038.8" y2="329.8"/>
			<line class="st46" x1="1050.8" y1="262.7" x2="1050.8" y2="329.8"/>
			<line class="st46" x1="1062.8" y1="243.2" x2="1062.8" y2="329.8"/>
			<line class="st46" x1="858.8" y1="317.1" x2="858.8" y2="329.8"/>
			<line class="st46" x1="846.8" y1="315.4" x2="846.8" y2="329.8"/>
			<line class="st46" x1="834.8" y1="313.1" x2="834.8" y2="329.8"/>
			<line class="st46" x1="822.8" y1="310.4" x2="822.8" y2="329.8"/>
			<line class="st46" x1="810.8" y1="306" x2="810.8" y2="329.8"/>
			<line class="st46" x1="798.8" y1="301" x2="798.8" y2="329.8"/>
			<line class="st46" x1="786.8" y1="295.1" x2="786.8" y2="329.8"/>
			<line class="st46" x1="774.8" y1="287.6" x2="774.8" y2="329.8"/>
			<line class="st46" x1="762.8" y1="278.6" x2="762.8" y2="329.8"/>
			<line class="st46" x1="749.8" y1="265" x2="749.8" y2="329.8"/>
			<line class="st46" x1="731.8" y1="243.2" x2="731.8" y2="329.8"/>
			<line class="st46" x1="1070.8" y1="319.1" x2="1070.8" y2="329.8"/>
			<line class="st46" x1="729.3" y1="281.2" x2="729.3" y2="329.8"/>
			<line class="st46" x1="738.8" y1="247.7" x2="738.8" y2="329.8"/>
			<g>
				<line class="st46" x1="957.8" y1="319.3" x2="957.8" y2="329.8"/>
				<line class="st46" x1="945.8" y1="321" x2="945.8" y2="329.8"/>
				<line class="st46" x1="933.8" y1="321" x2="933.8" y2="329.8"/>
				<line class="st46" x1="969.8" y1="317.1" x2="969.8" y2="329.8"/>
				<line class="st46" x1="981.8" y1="314.7" x2="981.8" y2="329.8"/>
				<line class="st46" x1="993.8" y1="312.2" x2="993.8" y2="329.8"/>
				<line class="st46" x1="1005.8" y1="309.4" x2="1005.8" y2="329.8"/>
				<line class="st46" x1="1017.8" y1="304.8" x2="1017.8" y2="329.8"/>
				<line class="st46" x1="1029.8" y1="299.6" x2="1029.8" y2="329.8"/>
				<line class="st46" x1="1041.8" y1="293.3" x2="1041.8" y2="329.8"/>
				<line class="st46" x1="1053.8" y1="285.4" x2="1053.8" y2="329.8"/>
				<line class="st46" x1="1065.8" y1="275.9" x2="1065.8" y2="329.8"/>
				<line class="st46" x1="1077.8" y1="262.7" x2="1077.8" y2="329.8"/>
				<line class="st46" x1="1089.8" y1="243.2" x2="1089.8" y2="329.8"/>
				<line class="st46" x1="897.8" y1="319.3" x2="897.8" y2="329.8"/>
				<line class="st46" x1="885.8" y1="317.1" x2="885.8" y2="329.8"/>
				<line class="st46" x1="873.8" y1="315.4" x2="873.8" y2="329.8"/>
				<line class="st46" x1="861.8" y1="313.1" x2="861.8" y2="329.8"/>
				<line class="st46" x1="849.8" y1="310.4" x2="849.8" y2="329.8"/>
				<line class="st46" x1="837.8" y1="306" x2="837.8" y2="329.8"/>
				<line class="st46" x1="825.8" y1="301" x2="825.8" y2="329.8"/>
				<line class="st46" x1="813.8" y1="295.1" x2="813.8" y2="329.8"/>
				<line class="st46" x1="801.8" y1="287.6" x2="801.8" y2="329.8"/>
				<line class="st46" x1="789.8" y1="278.6" x2="789.8" y2="329.8"/>
				<line class="st46" x1="957.8" y1="319.3" x2="957.8" y2="329.8"/>
				<line class="st46" x1="945.8" y1="321" x2="945.8" y2="329.8"/>
				<line class="st46" x1="933.8" y1="321" x2="933.8" y2="329.8"/>
				<line class="st46" x1="921.8" y1="321" x2="921.8" y2="329.8"/>
				<line class="st46" x1="909.8" y1="321" x2="909.8" y2="329.8"/>
				<line class="st46" x1="897.8" y1="321" x2="897.8" y2="329.8"/>
				<line class="st46" x1="969.8" y1="317.1" x2="969.8" y2="329.8"/>
				<line class="st46" x1="981.8" y1="314.7" x2="981.8" y2="329.8"/>
				<line class="st46" x1="993.8" y1="312.2" x2="993.8" y2="329.8"/>
				<line class="st46" x1="1005.8" y1="309.4" x2="1005.8" y2="329.8"/>
				<line class="st46" x1="1017.8" y1="304.8" x2="1017.8" y2="329.8"/>
				<line class="st46" x1="1029.8" y1="299.6" x2="1029.8" y2="329.8"/>
				<line class="st46" x1="1041.8" y1="293.3" x2="1041.8" y2="329.8"/>
				<line class="st46" x1="1053.8" y1="285.4" x2="1053.8" y2="329.8"/>
				<line class="st46" x1="1065.8" y1="275.9" x2="1065.8" y2="329.8"/>
				<line class="st46" x1="1077.8" y1="262.7" x2="1077.8" y2="329.8"/>
				<line class="st46" x1="1089.8" y1="243.2" x2="1089.8" y2="329.8"/>
				<line class="st46" x1="885.8" y1="317.1" x2="885.8" y2="329.8"/>
				<line class="st46" x1="873.8" y1="315.4" x2="873.8" y2="329.8"/>
				<line class="st46" x1="861.8" y1="313.1" x2="861.8" y2="329.8"/>
				<line class="st46" x1="849.8" y1="310.4" x2="849.8" y2="329.8"/>
				<line class="st46" x1="837.8" y1="306" x2="837.8" y2="329.8"/>
				<line class="st46" x1="825.8" y1="301" x2="825.8" y2="329.8"/>
				<line class="st46" x1="813.8" y1="295.1" x2="813.8" y2="329.8"/>
				<line class="st46" x1="801.8" y1="287.6" x2="801.8" y2="329.8"/>
				<line class="st46" x1="789.8" y1="278.6" x2="789.8" y2="329.8"/>
				<line class="st46" x1="776.8" y1="265" x2="776.8" y2="329.8"/>
				<line class="st46" x1="765.8" y1="247.7" x2="765.8" y2="329.8"/>
			</g>
			<g>
				<line class="st46" x1="617.8" y1="319.3" x2="617.8" y2="329.8"/>
				<line class="st46" x1="605.8" y1="321" x2="605.8" y2="329.8"/>
				<line class="st46" x1="593.8" y1="321" x2="593.8" y2="329.8"/>
				<line class="st46" x1="629.8" y1="317.1" x2="629.8" y2="329.8"/>
				<line class="st46" x1="641.8" y1="314.7" x2="641.8" y2="329.8"/>
				<line class="st46" x1="653.8" y1="312.2" x2="653.8" y2="329.8"/>
				<line class="st46" x1="665.8" y1="309.4" x2="665.8" y2="329.8"/>
				<line class="st46" x1="677.8" y1="304.8" x2="677.8" y2="329.8"/>
				<line class="st46" x1="689.8" y1="299.6" x2="689.8" y2="329.8"/>
				<line class="st46" x1="701.8" y1="293.3" x2="701.8" y2="329.8"/>
				<line class="st46" x1="713.8" y1="285.4" x2="713.8" y2="329.8"/>
				<line class="st46" x1="725.8" y1="275.9" x2="725.8" y2="329.8"/>
				<line class="st46" x1="737.8" y1="262.7" x2="737.8" y2="329.8"/>
				<line class="st46" x1="749.8" y1="243.2" x2="749.8" y2="329.8"/>
				<line class="st46" x1="557.8" y1="319.3" x2="557.8" y2="329.8"/>
				<line class="st46" x1="617.8" y1="319.3" x2="617.8" y2="329.8"/>
				<line class="st46" x1="605.8" y1="321" x2="605.8" y2="329.8"/>
				<line class="st46" x1="593.8" y1="321" x2="593.8" y2="329.8"/>
				<line class="st46" x1="581.8" y1="321" x2="581.8" y2="329.8"/>
				<line class="st46" x1="569.8" y1="321" x2="569.8" y2="329.8"/>
				<line class="st46" x1="557.8" y1="321" x2="557.8" y2="329.8"/>
				<line class="st46" x1="629.8" y1="317.1" x2="629.8" y2="329.8"/>
				<line class="st46" x1="641.8" y1="314.7" x2="641.8" y2="329.8"/>
				<line class="st46" x1="653.8" y1="312.2" x2="653.8" y2="329.8"/>
				<line class="st46" x1="665.8" y1="309.4" x2="665.8" y2="329.8"/>
				<line class="st46" x1="677.8" y1="304.8" x2="677.8" y2="329.8"/>
				<line class="st46" x1="689.8" y1="299.6" x2="689.8" y2="329.8"/>
				<line class="st46" x1="701.8" y1="293.3" x2="701.8" y2="329.8"/>
				<line class="st46" x1="713.8" y1="285.4" x2="713.8" y2="329.8"/>
				<line class="st46" x1="725.8" y1="275.9" x2="725.8" y2="329.8"/>
				<line class="st46" x1="737.8" y1="262.7" x2="737.8" y2="329.8"/>
				<line class="st46" x1="749.8" y1="243.2" x2="749.8" y2="329.8"/>
			</g>
			<g>
				<line class="st46" x1="587.8" y1="319.3" x2="587.8" y2="329.8"/>
				<line class="st46" x1="575.8" y1="321" x2="575.8" y2="329.8"/>
				<line class="st46" x1="563.8" y1="321" x2="563.8" y2="329.8"/>
				<line class="st46" x1="599.8" y1="317.1" x2="599.8" y2="329.8"/>
				<line class="st46" x1="611.8" y1="314.7" x2="611.8" y2="329.8"/>
				<line class="st46" x1="623.8" y1="312.2" x2="623.8" y2="329.8"/>
				<line class="st46" x1="635.8" y1="309.4" x2="635.8" y2="329.8"/>
				<line class="st46" x1="647.8" y1="304.8" x2="647.8" y2="329.8"/>
				<line class="st46" x1="659.8" y1="299.6" x2="659.8" y2="329.8"/>
				<line class="st46" x1="671.8" y1="293.3" x2="671.8" y2="329.8"/>
				<line class="st46" x1="683.8" y1="285.4" x2="683.8" y2="329.8"/>
				<line class="st46" x1="695.8" y1="275.9" x2="695.8" y2="329.8"/>
				<line class="st46" x1="707.8" y1="262.7" x2="707.8" y2="329.8"/>
				<line class="st46" x1="719.8" y1="243.2" x2="719.8" y2="329.8"/>
				<line class="st46" x1="587.8" y1="319.3" x2="587.8" y2="329.8"/>
				<line class="st46" x1="575.8" y1="321" x2="575.8" y2="329.8"/>
				<line class="st46" x1="563.8" y1="321" x2="563.8" y2="329.8"/>
				<line class="st46" x1="551.8" y1="321" x2="551.8" y2="329.8"/>
				<line class="st46" x1="539.8" y1="321" x2="539.8" y2="329.8"/>
				<line class="st46" x1="599.8" y1="317.1" x2="599.8" y2="329.8"/>
				<line class="st46" x1="611.8" y1="314.7" x2="611.8" y2="329.8"/>
				<line class="st46" x1="623.8" y1="312.2" x2="623.8" y2="329.8"/>
				<line class="st46" x1="635.8" y1="309.4" x2="635.8" y2="329.8"/>
				<line class="st46" x1="647.8" y1="304.8" x2="647.8" y2="329.8"/>
				<line class="st46" x1="659.8" y1="299.6" x2="659.8" y2="329.8"/>
				<line class="st46" x1="671.8" y1="293.3" x2="671.8" y2="329.8"/>
				<line class="st46" x1="683.8" y1="285.4" x2="683.8" y2="329.8"/>
				<line class="st46" x1="695.8" y1="275.9" x2="695.8" y2="329.8"/>
				<line class="st46" x1="707.8" y1="262.7" x2="707.8" y2="329.8"/>
				<line class="st46" x1="719.8" y1="243.2" x2="719.8" y2="329.8"/>
			</g>
			<g>
				<line class="st46" x1="1273" y1="321" x2="1273" y2="329.8"/>
				<line class="st46" x1="1237" y1="319.3" x2="1237" y2="329.8"/>
				<line class="st46" x1="1225" y1="317.1" x2="1225" y2="329.8"/>
				<line class="st46" x1="1213" y1="315.4" x2="1213" y2="329.8"/>
				<line class="st46" x1="1201" y1="313.1" x2="1201" y2="329.8"/>
				<line class="st46" x1="1189" y1="310.4" x2="1189" y2="329.8"/>
				<line class="st46" x1="1177" y1="306" x2="1177" y2="329.8"/>
				<line class="st46" x1="1165" y1="301" x2="1165" y2="329.8"/>
				<line class="st46" x1="1153" y1="295.1" x2="1153" y2="329.8"/>
				<line class="st46" x1="1141" y1="287.6" x2="1141" y2="329.8"/>
				<line class="st46" x1="1129" y1="278.6" x2="1129" y2="329.8"/>
				<line class="st46" x1="1273" y1="321" x2="1273" y2="329.8"/>
				<line class="st46" x1="1261" y1="321" x2="1261" y2="329.8"/>
				<line class="st46" x1="1249" y1="321" x2="1249" y2="329.8"/>
				<line class="st46" x1="1237" y1="321" x2="1237" y2="329.8"/>
				<line class="st46" x1="1225" y1="317.1" x2="1225" y2="329.8"/>
				<line class="st46" x1="1213" y1="315.4" x2="1213" y2="329.8"/>
				<line class="st46" x1="1201" y1="313.1" x2="1201" y2="329.8"/>
				<line class="st46" x1="1189" y1="310.4" x2="1189" y2="329.8"/>
				<line class="st46" x1="1177" y1="306" x2="1177" y2="329.8"/>
				<line class="st46" x1="1165" y1="301" x2="1165" y2="329.8"/>
				<line class="st46" x1="1153" y1="295.1" x2="1153" y2="329.8"/>
				<line class="st46" x1="1141" y1="287.6" x2="1141" y2="329.8"/>
				<line class="st46" x1="1129" y1="278.6" x2="1129" y2="329.8"/>
				<line class="st46" x1="1116" y1="265" x2="1116" y2="329.8"/>
				<line class="st46" x1="1105" y1="247.7" x2="1105" y2="329.8"/>
			</g>
			<g>
				<line class="st46" x1="1270" y1="319.3" x2="1270" y2="329.8"/>
				<line class="st46" x1="1258" y1="321" x2="1258" y2="329.8"/>
				<line class="st46" x1="1246" y1="321" x2="1246" y2="329.8"/>
				<line class="st46" x1="1210" y1="319.3" x2="1210" y2="329.8"/>
				<line class="st46" x1="1198" y1="317.1" x2="1198" y2="329.8"/>
				<line class="st46" x1="1186" y1="315.4" x2="1186" y2="329.8"/>
				<line class="st46" x1="1174" y1="313.1" x2="1174" y2="329.8"/>
				<line class="st46" x1="1162" y1="310.4" x2="1162" y2="329.8"/>
				<line class="st46" x1="1150" y1="306" x2="1150" y2="329.8"/>
				<line class="st46" x1="1138" y1="301" x2="1138" y2="329.8"/>
				<line class="st46" x1="1126" y1="295.1" x2="1126" y2="329.8"/>
				<line class="st46" x1="1114" y1="287.6" x2="1114" y2="329.8"/>
				<line class="st46" x1="1102" y1="278.6" x2="1102" y2="329.8"/>
				<line class="st46" x1="1270" y1="319.3" x2="1270" y2="329.8"/>
				<line class="st46" x1="1258" y1="321" x2="1258" y2="329.8"/>
				<line class="st46" x1="1246" y1="321" x2="1246" y2="329.8"/>
				<line class="st46" x1="1234" y1="321" x2="1234" y2="329.8"/>
				<line class="st46" x1="1222" y1="321" x2="1222" y2="329.8"/>
				<line class="st46" x1="1210" y1="321" x2="1210" y2="329.8"/>
				<line class="st46" x1="1198" y1="317.1" x2="1198" y2="329.8"/>
				<line class="st46" x1="1186" y1="315.4" x2="1186" y2="329.8"/>
				<line class="st46" x1="1174" y1="313.1" x2="1174" y2="329.8"/>
				<line class="st46" x1="1162" y1="310.4" x2="1162" y2="329.8"/>
				<line class="st46" x1="1150" y1="306" x2="1150" y2="329.8"/>
				<line class="st46" x1="1138" y1="301" x2="1138" y2="329.8"/>
				<line class="st46" x1="1126" y1="295.1" x2="1126" y2="329.8"/>
				<line class="st46" x1="1114" y1="287.6" x2="1114" y2="329.8"/>
				<line class="st46" x1="1102" y1="278.6" x2="1102" y2="329.8"/>
				<line class="st46" x1="1089" y1="265" x2="1089" y2="329.8"/>
				<line class="st46" x1="1078" y1="247.7" x2="1078" y2="329.8"/>
			</g>
		</g>
		<g class="st33">
			<polygon class="st9" points="87.7,324.8 103.2,302.2 115.3,297.4 162.7,281.4 190.6,286.3 221.9,252 247.2,219.3 266.6,184.7 
				313.9,198.6 344.8,205.8 389.5,200.6 420.4,206.2 434.7,237 472.6,260.2 495.8,280.9 506.8,292.5 526.5,310.9 536.5,323.9 
				548.8,324.4 547.9,340.9 565.3,365.5 575.8,379.2 567.7,404.5 547.5,418.3 523.6,443.5 71.3,437.9 			"/>
			<polygon class="st47" points="419.9,206.1 412,223.6 381.6,222.8 349.9,282.8 299.8,283 214,304 338,304 320.9,328 191,328 
				191,332 315,332 301.7,350 83,350 71.3,437.9 523.6,443.5 547.5,418.3 567.7,404.5 575.8,379.2 547.9,340.9 548.8,324.4 
				536.5,323.9 506.8,292.5 472.6,260.2 434.7,237 			"/>
			<polygon class="st48" points="382,240.2 345.3,305.2 382,371.6 			"/>
			<polygon class="st48" points="197.5,381.5 241.4,440 88.8,436.5 89,380.1 			"/>
			<polygon class="st9" points="89,380.1 103.2,371 183.2,371 197.5,381.5 197.1,404.7 178,421.6 105,420.8 89,403.8 			"/>
			<polygon class="st48" points="299.9,283 214,304 290,304 			"/>
			<polygon class="st48" points="507,292 481,292 490.3,304 476,304 494.6,319 526,319 511.3,301.2 515.4,301.6 			"/>
			<polygon class="st48" points="434.9,236.7 456,250.2 458,261.8 446.3,269 408,269 420.4,262 430,262 433,247 439,247 			"/>
			<polygon class="st48" points="410.5,231.8 407.6,250 418.4,257 425,257 416.3,227.6 			"/>
			<polygon class="st48" points="536,326 546,326 546,341 537.8,366 481,366 529.6,342 481,342 			"/>
			<polygon class="st48" points="567.8,404 498,404 504.7,413 430,413 446.5,433 398,433 382.9,441.8 523.6,443.4 532.5,434.1 
				470,434 479.1,429 537.4,429 547.5,418.3 518.8,418.3 520.8,417 549.4,417 567.7,404.5 			"/>
			<polygon class="st48" points="388,289.8 408.4,314.1 388,342.4 			"/>
			<polygon class="st48" points="293.9,371 256.9,416 293.9,417.2 304.5,402.1 			"/>
			<polygon class="st48" points="367.6,376.2 397.2,418 323,418 356.7,395.6 			"/>
			<polygon class="st9" points="324.3,340.1 310.1,371 336.6,394 363,356.6 			"/>
			<polygon class="st9" points="416.3,289.8 446.4,284.1 481.7,320.1 468.2,334.7 			"/>
			<polygon class="st48" points="425.2,305.1 461.4,337.2 437.4,337.6 428.9,365 403,365 			"/>
			<polygon class="st9" points="403,374 532,374 519,398 463,398 			"/>
			<polygon class="st48" points="400.2,380.1 458.4,404 420.4,408.6 			"/>
		</g>
		<path class="st36" d="M1157.1,427.9H609.8c-6.6,0-12-5.4-12-12v-3.8c0-6.6,5.4-12,12-12h547.3c6.6,0,12,5.4,12,12v3.8
			C1169.1,422.5,1163.7,427.9,1157.1,427.9z"/>
		<path class="st36" d="M1157.1,417.9H989.6c-6.6,0-12-5.4-12-12v-3.8c0-6.6,5.4-12,12-12h167.5c6.6,0,12,5.4,12,12v3.8
			C1169.1,412.5,1163.7,417.9,1157.1,417.9z"/>
		<g class="st33">
			<circle class="st9" cx="448.4" cy="25.2" r="26.6"/>
			<path class="st9" d="M450,44.6c0,10.8-33.8,7.2-44.6,7.2S386,43.1,386,32.3s8.7-19.5,19.5-19.5c4.4,0,16-1.2,22.6,3.5
				C437.4,23.2,450,38.2,450,44.6z"/>
		</g>
		<path class="st32" d="M371.8,43.9c0,4.6-3.8,8.4-8.4,8.4s-8.4-3.8-8.4-8.4s3.8-8.4,8.4-8.4S371.8,39.3,371.8,43.9z"/>
		<path class="st32" d="M488.3,38.1c0,6.2-5,11.3-11.3,11.3c-6.2,0-11.3-5-11.3-11.3s5-11.3,11.3-11.3
			C483.2,26.9,488.3,31.9,488.3,38.1z"/>
		<path class="st49" d="M1315.4,439.9H790c-6.6,0-12-5.4-12-12V420c0-6.6,5.4-12,12-12h525.4c6.6,0,12,5.4,12,12v7.9
			C1327.4,434.5,1322,439.9,1315.4,439.9z"/>
		<path class="st37" d="M735.1,450H294.8c-6.6,0-12-5.4-12-12v0c0-6.6,5.4-12,12-12h440.3c6.6,0,12,5.4,12,12v0
			C747.1,444.6,741.7,450,735.1,450z"/>
		<path class="st49" d="M1317.4,417.6h-289.5c-6.6,0-12-5.4-12-12v0c0-6.6,5.4-12,12-12h289.5c6.6,0,12,5.4,12,12v0
			C1329.4,412.2,1324,417.6,1317.4,417.6z"/>
		<path class="st36" d="M1157.1,450H954.7c-6.6,0-12-5.4-12-12v-7.9c0-6.6,5.4-12,12-12h202.4c6.6,0,12,5.4,12,12v7.9
			C1169.1,444.6,1163.7,450,1157.1,450z"/>
		<path class="st36" d="M1157.1,434.1h-46.3c-6.6,0-12-5.4-12-12v-3.9c0-6.6,30.6-16.5,37.2-16.5l21.2,0.5c6.6,0,12,5.4,12,12v7.9
			C1169.1,428.7,1163.7,434.1,1157.1,434.1z"/>
		<rect x="0" y="435.9" class="st37" width="1120" height="14"/>
		<polygon class="st50" points="1280,449.9 637.2,450 613.1,433 1280,433 		"/>
		<path class="st49" d="M804.5,433.7H695.6c-4.6,0-8.3-3.7-8.3-8.3l0,0c0-4.6,3.7-8.3,8.3-8.3h108.9c4.6,0,8.3,3.7,8.3,8.3l0,0
			C812.8,429.9,809.1,433.7,804.5,433.7z"/>
		<path class="st36" d="M788.5,450H586.1c-6.6,0-12-5.4-12-12v0c0-6.6,5.4-12,12-12h202.4c6.6,0,12,5.4,12,12v0
			C800.5,444.6,795.1,450,788.5,450z"/>
		<polygon class="st51" points="900.5,450 509.2,450 495.1,433 886.4,433 		"/>
		<path class="st36" d="M928,434.2c0-4.8,3.5-8.8,7.9-8.8s7.9,3.9,7.9,8.8"/>
		<circle class="st36" cx="1038" cy="372" r="6.1"/>
		<circle class="st36" cx="899.6" cy="379.8" r="5.2"/>
		<circle class="st36" cx="916.4" cy="363.5" r="7.1"/>
		<circle class="st36" cx="1074.7" cy="380.7" r="2.5"/>
		<path class="st36" d="M615.7,402.8c0-4.8,3.5-8.8,7.9-8.8s7.9,3.9,7.9,8.8"/>
		<path class="st36" d="M590.1,427.3c0-21.2,15.5-38.5,34.6-38.5s34.6,17.2,34.6,38.5"/>
		<circle class="st34" cx="624.7" cy="408.1" r="7.1"/>
		<circle class="st34" cx="603.7" cy="429.2" r="5.3"/>
		<circle class="st34" cx="658.5" cy="416.3" r="3.4"/>
		<g class="st33">
			<circle class="st9" cx="93.3" cy="35.2" r="26.6"/>
			<path class="st9" d="M95,54.6c0,10.8-33.8,7.2-44.6,7.2s-19.5-8.7-19.5-19.5s8.7-19.5,19.5-19.5c4.4,0,16-1.2,22.6,3.5
				C82.3,33.2,95,48.3,95,54.6z"/>
		</g>
		<path class="st32" d="M16.8,54c0,4.6-3.8,8.4-8.4,8.4S0,58.6,0,54s3.8-8.4,8.4-8.4S16.8,49.3,16.8,54z"/>
		<path class="st32" d="M133.2,48.2c0,6.2-5,11.3-11.3,11.3c-6.2,0-11.3-5-11.3-11.3s5-11.3,11.3-11.3
			C128.2,36.9,133.2,41.9,133.2,48.2z"/>
		<rect x="0" y="350" class="st52" width="83" height="85.9"/>
		<polygon class="st53" points="-0.1,376.9 17.9,410.3 4.8,377 44,377 83,350 105.3,349.9 83,380.1 83,436 0,435.9 		"/>
		<polygon class="st32" points="76,355.2 83.1,390.4 64.3,422 28,422 6,377 44,377 		"/>
		<polygon class="st32" points="87.7,324.8 0,350 -0.1,358.1 8.8,373.8 44.6,367.8 71.3,351.1 85.3,349.8 		"/>
		<g class="st33">
			<g>
				<path class="st0" d="M548.7,105.7c1.9,0,1.9-3,0-3C546.8,102.7,546.8,105.7,548.7,105.7L548.7,105.7z"/>
			</g>
		</g>
		<line class="st55" x1="483.2" y1="181.3" x2="542.6" y2="183.7"/>
		<g class="st33">
			<path class="st56" d="M464.9,438L464.9,438c-1.1-0.7-1.7-2.5-1.1-4.1l50.1-149.7c0.5-1.5,1.9-2.2,3-1.5l0,0
				c1.1,0.7,1.7,2.5,1.1,4.1l-50.1,149.7C467.4,438,466.1,438.7,464.9,438z"/>
			<path class="st56" d="M516.2,450.7L516.2,450.7c-1.3,0-2.3-1-2.3-2.3V282.6c0-1.3,1-2.3,2.3-2.3l0,0c1.3,0,2.3,1,2.3,2.3v165.8
				C518.5,449.6,517.5,450.7,516.2,450.7z"/>
			<g>
				<path class="st56" d="M567.5,438L567.5,438c1.1-0.7,1.7-2.5,1.1-4.1l-50.1-149.7c-0.5-1.5-1.9-2.2-3-1.5l0,0
					c-1.1,0.7-1.7,2.5-1.1,4.1l50.1,149.7C565,438,566.4,438.7,567.5,438z"/>
				<path class="st56" d="M567.5,438L567.5,438c1.1-0.7,1.7-2.5,1.1-4.1l-50.1-149.7c-0.5-1.5-1.9-2.2-3-1.5l0,0
					c-1.1,0.7-1.7,2.5-1.1,4.1l50.1,149.7C565,438,566.4,438.7,567.5,438z"/>
				<path class="st56" d="M567.5,438L567.5,438c1.1-0.7,1.7-2.5,1.1-4.1l-50.1-149.7c-0.5-1.5-1.9-2.2-3-1.5l0,0
					c-1.1,0.7-1.7,2.5-1.1,4.1l50.1,149.7C565,438,566.4,438.7,567.5,438z"/>
			</g>
			<path class="st4" d="M518.7,284.6h-5c-4.4,0-8.1-3.6-8.1-8.1l0,0c0-4.4,3.6-8.1,8.1-8.1h5c4.4,0,8.1,3.6,8.1,8.1l0,0
				C526.8,280.9,523.1,284.6,518.7,284.6z"/>
			<path class="st4" d="M539.2,277.1h-43.8c-0.7,0-1.2-0.6-1.2-1.2v-3.1c0-0.7,0.6-1.2,1.2-1.2h43.8c0.7,0,1.2,0.6,1.2,1.2v3.1
				C540.4,276.6,539.9,277.1,539.2,277.1z"/>
			<circle class="st57" cx="489.6" cy="192.5" r="15.2"/>
			<circle class="st57" cx="537.9" cy="192.5" r="11.1"/>
			<path class="st56" d="M551.7,256.3v-15.6c0-0.6,0.5-1.1,1.1-1.1h3.4c0.6,0,1.1,0.5,1.1,1.1v15.6c0,0.6-0.5,1.1-1.1,1.1h-3.4
				C552.2,257.4,551.7,256.9,551.7,256.3z"/>
			
				<rect x="474.3" y="246.8" transform="matrix(2.948379e-11 1 -1 2.948379e-11 727.8354 -230.9673)" class="st56" width="10.2" height="3.2"/>
			<path class="st58" d="M475.9,254.1v-11.2c0-0.6,0.5-1,1-1l0,0c0.6,0,1,0.5,1,1v11.2c0,0.6-0.5,1-1,1l0,0
				C476.4,255.1,475.9,254.6,475.9,254.1z"/>
			<path class="st59" d="M549.5,271.8H485c-2.8,0-5.1-2.3-5.1-5.1v-36.5c0-2.8,2.3-5.1,5.1-5.1h64.5c2.8,0,5.1,2.3,5.1,5.1v36.5
				C554.5,269.5,552.3,271.8,549.5,271.8z"/>
			<path class="st58" d="M530.5,225.2H504c-0.6,0-1.1-0.5-1.1-1.1v-11.5c0-0.6,0.5-1.1,1.1-1.1h26.4c0.6,0,1.1,0.5,1.1,1.1v11.5
				C531.6,224.7,531.1,225.2,530.5,225.2z"/>
			<polygon class="st58" points="611.6,278.4 557.3,255.4 557.3,241.4 611.6,218.4 			"/>
			<path class="st60" d="M610.2,279v-61.1c0-0.6,0.5-1.1,1.1-1.1h0.6c0.6,0,1.1,0.5,1.1,1.1V279c0,0.6-0.5,1.1-1.1,1.1h-0.6
				C610.7,280.1,610.2,279.6,610.2,279z"/>
			<path class="st60" d="M489.6,170c-12.4,0-22.5,10.1-22.5,22.5s10.1,22.5,22.5,22.5c12.4,0,22.5-10.1,22.5-22.5S502,170,489.6,170
				z M470.7,192.5c0-3.5,2.8-6.2,6.2-6.2c3.5,0,6.2,2.8,6.2,6.2s-2.8,6.2-6.2,6.2C473.5,198.7,470.7,195.9,470.7,192.5z M485,211.9
				c-3.5,0-6.2-2.8-6.2-6.2c0-3.5,2.8-6.2,6.2-6.2s6.2,2.8,6.2,6.2C491.2,209.1,488.4,211.9,485,211.9z M489.6,194.3
				c-1.3,0-2.3-1-2.3-2.3s1-2.3,2.3-2.3c1.3,0,2.3,1,2.3,2.3S490.9,194.3,489.6,194.3z M486.1,185.8c-3.5,0-6.2-2.8-6.2-6.2
				c0-3.5,2.8-6.2,6.2-6.2c3.5,0,6.2,2.8,6.2,6.2C492.3,183,489.5,185.8,486.1,185.8z M499.9,207.9c-3.5,0-6.2-2.8-6.2-6.2
				s2.8-6.2,6.2-6.2c3.5,0,6.2,2.8,6.2,6.2S503.4,207.9,499.9,207.9z M501.7,192c-3.5,0-6.2-2.8-6.2-6.2c0-3.5,2.8-6.2,6.2-6.2
				c3.5,0,6.2,2.8,6.2,6.2C508,189.2,505.2,192,501.7,192z"/>
			<path class="st60" d="M537.7,171.8c-12.4,0-22.5,10.1-22.5,22.5c0,12.4,10.1,22.5,22.5,22.5s22.5-10.1,22.5-22.5
				C560.2,181.9,550.1,171.8,537.7,171.8z M518.7,194.3c0-3.5,2.8-6.2,6.2-6.2c3.5,0,6.2,2.8,6.2,6.2c0,3.5-2.8,6.2-6.2,6.2
				C521.5,200.5,518.7,197.7,518.7,194.3z M533.1,213.7c-3.5,0-6.2-2.8-6.2-6.2c0-3.5,2.8-6.2,6.2-6.2s6.2,2.8,6.2,6.2
				C539.3,210.9,536.5,213.7,533.1,213.7z M537.7,196.1c-1.3,0-2.3-1-2.3-2.3c0-1.3,1-2.3,2.3-2.3s2.3,1,2.3,2.3
				C540,195.1,538.9,196.1,537.7,196.1z M534.2,187.6c-3.5,0-6.2-2.8-6.2-6.2c0-3.5,2.8-6.2,6.2-6.2s6.2,2.8,6.2,6.2
				C540.4,184.8,537.6,187.6,534.2,187.6z M548,209.8c-3.5,0-6.2-2.8-6.2-6.2c0-3.5,2.8-6.2,6.2-6.2s6.2,2.8,6.2,6.2
				C554.2,207,551.5,209.8,548,209.8z M549.8,193.8c-3.5,0-6.2-2.8-6.2-6.2s2.8-6.2,6.2-6.2c3.5,0,6.2,2.8,6.2,6.2
				S553.3,193.8,549.8,193.8z"/>
			<rect x="485" y="229.9" class="st58" width="10.5" height="1.8"/>
			<rect x="498" y="229.9" class="st56" width="10.5" height="1.8"/>
			<rect x="510.3" y="229.9" class="st60" width="10.5" height="1.8"/>
		</g>
		<path class="st61" d="M452.6,349.3l-3,86.8c-0.1,2.7-1.3,5-3.2,6.6c-2,1.6-4.6,2.4-7.4,1.9l-2.5-0.5l-3.8-1.1l-55.2-15.5
			c-1.8-0.5-2.9-2.4-2.4-4.2l0.9-5.3c0.5-1.8,2.4-2.9,4.2-2.4l30.2,5c1.8,0.3,5.7-1,7.5-0.5l12.1,4.8l-8.6-56.3
			c0.4-11.3,9.9-20.2,21.2-19.8L452.6,349.3z"/>
		<g class="st33">
			<defs>
				<path id="SVGID_3_" d="M452.2,348.9l-2.1,86.8c-0.1,2.7-1.3,5-3.2,6.6c-1.9,1.7-4.6,2.5-7.3,2l-2.5-0.4l-3.8-1L377.9,428
					c-1.8-0.5-2.9-2.4-2.4-4.2l0.9-5.3c0.5-1.8,2.4-2.9,4.2-2.4l30.2,4.7c1.8,0.3,5.7-1.1,7.5-0.6l12.1,4.7l-9.2-56.2
					c0.3-11.3,9.7-20.3,21-20L452.2,348.9z"/>
			</defs>
			<clipPath id="SVGID_4_">
				<use xlink:href="#SVGID_3_"  style="overflow:visible;"/>
			</clipPath>
			<polygon class="st62" points="427,491.4 388.8,268.6 389.3,268.2 427.5,491 			"/>
			<polygon class="st62" points="429,492.6 390.8,269.8 391.4,269.4 429.6,492.2 			"/>
			<polygon class="st62" points="431,493.9 392.8,271 393.4,270.6 431.6,493.4 			"/>
			<polygon class="st62" points="433,495.1 394.8,272.2 395.4,271.8 433.6,494.6 			"/>
			<polygon class="st62" points="435.1,496.3 396.9,273.5 397.4,273 435.6,495.9 			"/>
			<polygon class="st62" points="437.1,497.5 398.9,274.7 399.5,274.2 437.7,497.1 			"/>
			<path class="st62" d="M426.4,420.7c-0.4-0.5-0.7-1.2-0.5-2c0-0.2,0.1-0.4,0.1-0.6l-24.4-142.6l-0.6,0.4l38.2,222.8l0.6-0.4
				L426.4,420.7z"/>
			<path class="st62" d="M422.5,391.1c-0.3-2.5-0.5-5.1-0.7-7.6l-18.3-106.8l-0.6,0.4l19.8,115.3
				C422.6,391.9,422.6,391.5,422.5,391.1z"/>
			<path class="st62" d="M426.2,412.6c-0.3-5.4-1.7-10.8-2.8-16.2L426.2,412.6z"/>
			<path class="st62" d="M428.3,421.6c-0.2,0-0.4-0.1-0.7-0.1l13.4,78.4l0.6-0.4L428.3,421.6z"/>
			<polygon class="st62" points="424.9,490.2 386.7,267.4 387.3,267 425.5,489.8 			"/>
			<polygon class="st62" points="422.9,489 384.7,266.2 385.3,265.8 423.5,488.6 			"/>
			<polygon class="st62" points="420.9,487.8 382.7,265 383.3,264.5 421.5,487.4 			"/>
			<polygon class="st62" points="418.9,486.6 380.7,263.8 381.3,263.3 419.5,486.2 			"/>
			<polygon class="st62" points="416.9,485.4 378.7,262.5 379.2,262.1 417.4,484.9 			"/>
			<polygon class="st62" points="414.8,484.1 376.6,261.3 377.2,260.9 415.4,483.7 			"/>
			<polygon class="st62" points="412.8,482.9 374.6,260.1 375.2,259.7 413.4,482.5 			"/>
			<polygon class="st62" points="410.8,481.7 372.6,258.9 373.2,258.5 411.4,481.3 			"/>
			<polygon class="st62" points="408.8,480.5 370.6,257.7 371.1,257.3 409.3,480.1 			"/>
			<polygon class="st62" points="406.7,479.3 368.6,256.5 369.1,256.1 407.3,478.9 			"/>
			<polygon class="st62" points="404.7,478.1 366.5,255.3 367.1,254.8 405.3,477.7 			"/>
			<polygon class="st62" points="402.7,476.9 364.5,254 365.1,253.6 403.3,476.4 			"/>
			<polygon class="st62" points="400.7,475.7 362.5,252.8 363.1,252.4 401.3,475.2 			"/>
			<polygon class="st62" points="398.7,474.4 360.5,251.6 361,251.2 399.2,474 			"/>
			<polygon class="st62" points="396.6,473.2 358.4,250.4 359,250 397.2,472.8 			"/>
			<polygon class="st62" points="394.6,472 356.4,249.2 357,248.8 395.2,471.6 			"/>
			<polygon class="st62" points="392.6,470.8 354.4,248 355,247.6 393.2,470.4 			"/>
			<polygon class="st62" points="390.6,469.6 352.4,246.8 353,246.3 391.2,469.2 			"/>
			<polygon class="st62" points="388.6,468.4 350.4,245.6 350.9,245.1 389.1,468 			"/>
			<polygon class="st62" points="386.5,467.2 348.3,244.3 348.9,243.9 387.1,466.7 			"/>
			<polygon class="st62" points="384.5,465.9 346.3,243.1 346.9,242.7 385.1,465.5 			"/>
			<polygon class="st62" points="382.5,464.7 344.3,241.9 344.9,241.5 383.1,464.3 			"/>
			<polygon class="st62" points="380.5,463.5 342.3,240.7 342.8,240.3 381,463.1 			"/>
			<path class="st62" d="M452.3,380.8L438,297.4l-0.6,0.4l14.1,82.2C451.9,380.2,452.1,380.4,452.3,380.8z"/>
			<path class="st62" d="M452.6,382.5c-0.1,0.4-0.2,0.8-0.4,1.2l23.5,136.9l0.6-0.4L452.6,382.5z"/>
			<polygon class="st62" points="477.6,521.8 439.4,299 440,298.6 478.2,521.4 			"/>
			<polygon class="st62" points="479.7,523 441.5,300.2 442,299.8 480.2,522.6 			"/>
			<polygon class="st62" points="481.7,524.3 443.5,301.4 444.1,301 482.3,523.8 			"/>
			<path class="st62" d="M450.1,379.8c0.1,0,0.2,0,0.3,0L436,296.2l-0.6,0.4l14.3,83.2C449.8,379.8,450,379.8,450.1,379.8z"/>
			<path class="st62" d="M451.2,384.5c-0.2,0.1-0.4,0.2-0.6,0.2l23.1,134.7l0.6-0.4L451.2,384.5z"/>
			<path class="st62" d="M449.4,384.9c-0.2,0-0.4,0-0.6,0l22.8,133.3l0.6-0.4L449.4,384.9z"/>
			<path class="st62" d="M448.6,379.9L434,295l-0.6,0.4l14.5,84.6C448.1,380,448.3,380,448.6,379.9z"/>
			<path class="st62" d="M446.7,380L432,293.8l-0.6,0.4l14.7,85.7C446.3,379.9,446.5,379.9,446.7,380z"/>
			<path class="st62" d="M447.6,385c-0.2,0-0.4,0-0.7,0L469.6,517l0.6-0.4L447.6,385z"/>
			<path class="st62" d="M445.8,384.8c-0.2,0-0.4-0.1-0.7-0.1l22.5,131l0.6-0.4L445.8,384.8z"/>
			<path class="st62" d="M444.9,379.8l-15-87.2l-0.6,0.4l14.9,86.6C444.5,379.7,444.7,379.7,444.9,379.8z"/>
			<path class="st62" d="M443,379.3l-15.1-88l-0.6,0.4l15,87.3C442.5,379.2,442.8,379.2,443,379.3z"/>
			<path class="st62" d="M443.9,384.6c-0.2,0-0.4-0.1-0.7-0.1l22.3,130.1l0.6-0.4L443.9,384.6z"/>
			<path class="st62" d="M441.1,378.6l-15.2-88.5l-0.6,0.4l15,87.7C440.6,378.4,440.8,378.5,441.1,378.6z"/>
			<path class="st62" d="M442,384.2c-0.2-0.1-0.5-0.1-0.7-0.2l22.2,129.3l0.6-0.4L442,384.2z"/>
			<path class="st62" d="M439.1,377.6l-15.2-88.6l-0.6,0.4l15,87.8C438.6,377.3,438.8,377.4,439.1,377.6z"/>
			<path class="st62" d="M440.1,383.7c-0.2-0.1-0.5-0.2-0.7-0.3l22.1,128.7l0.6-0.4L440.1,383.7z"/>
			<path class="st62" d="M437,376.2l-15.2-88.5l-0.6,0.4l15,87.5C436.5,375.8,436.8,376,437,376.2z"/>
			<path class="st62" d="M438.2,382.9c-0.2-0.1-0.5-0.2-0.7-0.3l22,128.4l0.6-0.4L438.2,382.9z"/>
			<path class="st62" d="M434.9,374.5l-15.1-88l-0.6,0.4l14.9,86.8C434.4,374,434.7,374.2,434.9,374.5z"/>
			<path class="st62" d="M436.2,381.8c-0.2-0.1-0.5-0.3-0.7-0.4l22,128.3l0.6-0.4L436.2,381.8z"/>
			<path class="st62" d="M432,371.4c0.2,0.3,0.5,0.5,0.7,0.8l-14.9-87l-0.6,0.4L432,371.4C432,371.4,432,371.4,432,371.4z"/>
			<path class="st62" d="M434.1,380.5c-0.3-0.2-0.5-0.4-0.8-0.6l22.1,128.6l0.6-0.4L434.1,380.5z"/>
			<path class="st62" d="M430.6,370.6l-14.8-86.5l-0.6,0.4l14.7,86C430.2,370.5,430.4,370.5,430.6,370.6z"/>
			<path class="st62" d="M432,378.7c-0.3-0.2-0.5-0.5-0.8-0.7l22.2,129.4l0.6-0.4L432,378.7z"/>
			<path class="st62" d="M429,375.6l22.4,130.5l0.6-0.4l-22.1-129.2C429.6,376.2,429.3,375.9,429,375.6z"/>
			<path class="st62" d="M428.8,370.8l-15.1-87.9l-0.6,0.4l15.1,87.8C428.4,371,428.6,370.8,428.8,370.8z"/>
			<path class="st62" d="M425.1,359.2l-13.3-77.6l-0.6,0.4l13.2,76.9C424.6,359,424.8,359.1,425.1,359.2z"/>
			<path class="st62" d="M427.3,372.5l-1.2-7.2c0,1.4,0,2.8,0.1,4.2l23.2,135.4l0.6-0.4l-22.4-130.7
				C427.3,373.3,427.3,372.9,427.3,372.5z"/>
			<path class="st62" d="M423.2,358.9l-13.5-78.5l-0.6,0.4l13.4,78.3C422.8,359,423,359,423.2,358.9z"/>
			<path class="st62" d="M426.5,378.2c0.1,2,0.2,4.1,0.4,6.1l20.5,119.3l0.6-0.4L426.5,378.2z"/>
			<path class="st62" d="M421.6,359.9l-13.8-80.7l-0.6,0.4l14,81.5C421.2,360.6,421.3,360.3,421.6,359.9z"/>
			<path class="st62" d="M431.1,415.8c0,0.9-0.1,1.7-0.2,2.6l14.4,84.1l0.6-0.4L431.1,415.8z"/>
			<path class="st62" d="M421.1,368.1L405.7,278l-0.6,0.4l16.1,94.1C421.2,371,421.2,369.5,421.1,368.1z"/>
			<path class="st62" d="M430.2,420.9c-0.2,0.2-0.4,0.3-0.6,0.5l13.7,79.9l0.6-0.4L430.2,420.9z"/>
		</g>
		<path class="st61" d="M533.1,423.7l-5.1,1.5c-1.9,0.3-3.6-0.9-4-2.8l-8.7-29.3c-0.5-1.7-3.4-4.7-3.7-6.5l-1.2-16.8l-63.1,12.7
			c-11.8,0.2-21.5-8.7-21.7-20.1l-0.2-10.1l90.4-1.8c1,0,2,0.1,3,0.4c2.6,0.8,4.5,2.6,5.6,5c0.1,0.2,0.3,4.1,0.3,4.1v0l11,59.6
			C535.8,421.6,534.9,423.4,533.1,423.7z"/>
		<g class="st33">
			<defs>
				<path id="SVGID_5_" d="M533.1,423.7l-5.1,1.5c-1.9,0.3-3.6-0.9-4-2.8l-8.7-29.3c-0.5-1.7-3.4-4.7-3.7-6.5l-1.2-16.8l-63.1,12.7
					c-11.8,0.2-21.5-8.7-21.7-20.1l-0.2-10.1l90.4-1.8c1,0,2,0.1,3,0.4c2.6,0.8,4.8,2.6,5.8,5c0.1,0.2,0.6,4.1,0.6,4.1v0l10.8,59.6
					C536.1,421.6,534.9,423.4,533.1,423.7z"/>
			</defs>
			<clipPath id="SVGID_6_">
				<use xlink:href="#SVGID_5_"  style="overflow:visible;"/>
			</clipPath>
			<polygon class="st63" points="460,350.2 414.9,300.2 414.6,300.8 459.1,350.2 			"/>
			<polygon class="st63" points="467.8,358.9 467,358.9 561,463.3 561.2,462.7 			"/>
			<polygon class="st63" points="470.1,358.9 469.3,358.9 563.3,463.3 563.6,462.7 			"/>
			<polygon class="st63" points="462.3,350.2 417.3,300.2 417,300.8 461.5,350.2 			"/>
			<polygon class="st63" points="464.7,350.2 419.6,300.2 419.3,300.8 463.8,350.2 			"/>
			<polygon class="st63" points="472.5,358.9 471.6,358.9 565.6,463.3 565.9,462.7 			"/>
			<polygon class="st63" points="467,350.2 421.9,300.2 421.7,300.8 466.2,350.2 			"/>
			<polygon class="st63" points="474.8,358.9 474,358.9 568,463.3 568.3,462.7 			"/>
			<polygon class="st63" points="469.3,350.2 424.3,300.2 424,300.8 468.5,350.2 			"/>
			<polygon class="st63" points="477.2,358.9 476.3,358.9 570.3,463.3 570.6,462.7 			"/>
			<polygon class="st63" points="471.7,350.2 426.6,300.2 426.3,300.8 470.8,350.2 			"/>
			<polygon class="st63" points="479.5,358.9 478.7,358.9 572.7,463.3 572.9,462.7 			"/>
			<polygon class="st63" points="474,350.2 429,300.2 428.7,300.8 473.2,350.2 			"/>
			<polygon class="st63" points="481.8,358.9 481,358.9 575,463.3 575.3,462.7 			"/>
			<polygon class="st63" points="476.4,350.2 431.3,300.2 431,300.8 475.5,350.2 			"/>
			<polygon class="st63" points="484.2,358.9 483.3,358.9 577.4,463.3 577.6,462.7 			"/>
			<polygon class="st63" points="457.6,350.2 412.6,300.2 412.3,300.8 456.8,350.2 			"/>
			<polygon class="st63" points="465.5,358.9 464.6,358.9 558.6,463.3 558.9,462.7 			"/>
			<polygon class="st63" points="455.3,350.2 410.2,300.2 410,300.8 454.5,350.2 			"/>
			<polygon class="st63" points="463.1,358.9 462.3,358.9 556.3,463.3 556.6,462.7 			"/>
			<polygon class="st63" points="453,350.2 407.9,300.2 407.6,300.8 452.1,350.2 			"/>
			<polygon class="st63" points="460.8,358.9 459.9,358.9 553.9,463.3 554.2,462.7 			"/>
			<polygon class="st63" points="450.6,350.2 405.5,300.2 405.3,300.8 449.8,350.2 			"/>
			<polygon class="st63" points="458.4,358.9 457.6,358.9 551.6,463.3 551.9,462.7 			"/>
			<polygon class="st63" points="448.3,350.2 403.2,300.2 402.9,300.8 447.4,350.2 			"/>
			<polygon class="st63" points="456.1,358.9 455.2,358.9 549.3,463.3 549.5,462.7 			"/>
			<polygon class="st63" points="453.7,358.9 452.9,358.9 546.9,463.3 547.2,462.7 			"/>
			<polygon class="st63" points="445.9,350.2 400.9,300.2 400.6,300.8 445.1,350.2 			"/>
			<polygon class="st63" points="443.6,350.2 398.5,300.2 398.3,300.8 442.8,350.2 			"/>
			<polygon class="st63" points="451.4,358.9 450.6,358.9 544.6,463.3 544.9,462.7 			"/>
			<path class="st63" d="M440.9,350.2h0.4l-45.1-50l-0.3,0.6l42,46.6C438.8,348.4,439.8,349.4,440.9,350.2z"/>
			<polygon class="st63" points="449.1,358.9 448.2,358.9 542.2,463.3 542.5,462.7 			"/>
			<path class="st63" d="M431.4,341.8l-37.5-41.7l-0.3,0.6l37.1,41.2C430.9,341.9,431.1,341.8,431.4,341.8z"/>
			<polygon class="st63" points="446.7,358.9 445.9,358.9 539.9,463.3 540.2,462.7 			"/>
			<path class="st63" d="M429.7,342.6l-38.2-42.4l-0.3,0.6l38,42.2C429.4,342.9,429.5,342.7,429.7,342.6z"/>
			<path class="st63" d="M444.2,358.7c-0.8-0.3-1.3-0.9-1.5-1.7l-0.1-0.2c-0.5-0.2-1-0.5-1.5-0.8l96.5,107.2l0.3-0.6L444.2,358.7z"
				/>
			<path class="st63" d="M428.8,344.2l-39.7-44l-0.3,0.6l40.1,44.5C428.8,345,428.8,344.6,428.8,344.2z"/>
			<path class="st63" d="M430.2,346.7l3.2,3.5h0.5C432.7,349,431.5,347.8,430.2,346.7z"/>
			<polygon class="st63" points="438.7,355.2 437.9,355.2 535.2,463.3 535.5,462.7 			"/>
			<polygon class="st63" points="431.9,350.2 386.8,300.2 386.5,300.8 431,350.2 			"/>
			<polygon class="st63" points="436.4,355.2 435.5,355.2 532.9,463.3 533.2,462.7 			"/>
			<polygon class="st63" points="429.5,350.2 384.5,300.2 384.2,300.8 428.7,350.2 			"/>
			<polygon class="st63" points="434,355.2 433.2,355.2 530.5,463.3 530.8,462.7 			"/>
			<polygon class="st63" points="427.2,350.2 382.1,300.2 381.9,300.8 426.4,350.2 			"/>
			<polygon class="st63" points="431.7,355.2 430.9,355.2 528.2,463.3 528.5,462.7 			"/>
			<polygon class="st63" points="424.9,350.2 379.8,300.2 379.5,300.8 424,350.2 			"/>
			<polygon class="st63" points="429.4,355.2 428.5,355.2 525.9,463.3 526.1,462.7 			"/>
			<polygon class="st63" points="427,355.2 426.2,355.2 523.5,463.3 523.8,462.7 			"/>
			<polygon class="st63" points="422.5,350.2 377.5,300.2 377.2,300.8 421.7,350.2 			"/>
			<polygon class="st63" points="424.7,355.2 423.8,355.2 521.2,463.3 521.4,462.7 			"/>
			<path class="st63" d="M420.2,350.2l-45.1-50.1l-0.3,0.6l44.6,49.6C419.7,350.3,419.9,350.2,420.2,350.2z"/>
			<path class="st63" d="M418.5,351l-45.8-50.8l-0.3,0.6l45.7,50.8C418.3,351.4,418.4,351.2,418.5,351z"/>
			<polygon class="st63" points="421.5,355.2 518.8,463.3 519.1,462.7 422.3,355.2 			"/>
			<path class="st63" d="M418.1,353.1l-47.7-52.9l-0.3,0.6l146.3,162.5l0.3-0.6l-96.9-107.6C418.9,354.8,418.3,354,418.1,353.1z"/>
			<polygon class="st63" points="514.2,463.3 367.8,300.8 368.1,300.2 514.4,462.7 			"/>
			<polygon class="st63" points="511.8,463.3 365.5,300.8 365.8,300.2 512.1,462.7 			"/>
			<polygon class="st63" points="509.5,463.3 363.1,300.8 363.4,300.2 509.7,462.7 			"/>
			<polygon class="st63" points="507.1,463.3 360.8,300.8 361.1,300.2 507.4,462.7 			"/>
			<path class="st63" d="M529.3,364.7c0.1,0.4,0.2,0.8,0.3,1.3l87.7,97.3l0.3-0.6L529.3,364.7z"/>
			<path class="st63" d="M514.9,348.6l-43.7-48.5l-0.3,0.6l43.1,47.9C514.3,348.6,514.6,348.6,514.9,348.6z"/>
			<path class="st63" d="M517.7,349.1l-44.1-49l-0.3,0.6l43.3,48.1C517,348.9,517.3,349,517.7,349.1z"/>
			<path class="st63" d="M528.3,360.9c0.1,0.5,0.3,0.9,0.4,1.4l90.9,101l0.3-0.6L528.3,360.9z"/>
			<path class="st63" d="M521.4,350.6l-45.4-50.5l-0.3,0.6l44.3,49.2C520.4,350.2,520.9,350.4,521.4,350.6z"/>
			<path class="st63" d="M528.1,358.1c0,0.2-0.1,0.5-0.2,0.7L622,463.3l0.3-0.6L528.1,358.1z"/>
			<path class="st63" d="M478.3,300.2l-0.3,0.6l46.1,51.2c0.3,0.2,0.6,0.3,0.9,0.5c0.8,0.4,1.1,1.1,1,1.7l98.2,109.1l0.3-0.6
				L478.3,300.2z"/>
			<path class="st63" d="M512.1,349c0.2-0.1,0.4-0.1,0.6-0.2l-43.8-48.6l-0.3,0.6L512.1,349C512.1,349,512.1,349,512.1,349z"/>
			<path class="st63" d="M530.1,368.1c0.1,0.4,0.1,0.8,0.2,1.2l84.7,94.1l0.3-0.6L530.1,368.1z"/>
			<path class="st63" d="M509.6,347.9l-43-47.8l-0.3,0.6l42.6,47.3C509.1,348,509.4,347.9,509.6,347.9z"/>
			<path class="st63" d="M530.6,371.3c0,0.4,0.1,0.7,0.1,1.1l81.9,91l0.3-0.6L530.6,371.3z"/>
			<path class="st63" d="M508,348.8l-43.8-48.6l-0.3,0.6l43.8,48.6C507.8,349.2,507.9,349,508,348.8z"/>
			<path class="st63" d="M517.1,358.9h-0.8l3.2,3.5c-0.1-0.4-0.2-0.9-0.3-1.3L517.1,358.9z"/>
			<path class="st63" d="M530.9,374.2c0,0.3,0,0.7,0.1,1l79.3,88.1l0.3-0.6L530.9,374.2z"/>
			<polygon class="st63" points="507,350.2 461.9,300.2 461.6,300.8 506.1,350.2 			"/>
			<path class="st63" d="M514.8,358.9H514l6.2,6.9c-0.1-0.4-0.1-0.8-0.2-1.2L514.8,358.9z"/>
			<path class="st63" d="M531,376.9c0,0.3,0,0.6,0,0.9l77,85.5l0.3-0.6L531,376.9z"/>
			<polygon class="st63" points="504.6,350.2 459.6,300.2 459.3,300.8 503.8,350.2 			"/>
			<path class="st63" d="M512.5,358.9h-0.8l9,10c0-0.4-0.1-0.7-0.2-1.1L512.5,358.9z"/>
			<path class="st63" d="M530.9,379.4c0,0.3,0,0.6-0.1,0.8l74.8,83.1l0.3-0.6L530.9,379.4z"/>
			<polygon class="st63" points="502.3,350.2 457.2,300.2 457,300.8 501.5,350.2 			"/>
			<path class="st63" d="M530.7,381.7c0,0.3-0.1,0.5-0.1,0.8l72.8,80.8l0.3-0.6L530.7,381.7z"/>
			<path class="st63" d="M510.1,358.9h-0.8l11.7,13c0-0.4-0.1-0.7-0.1-1L510.1,358.9z"/>
			<path class="st63" d="M530.2,383.8c0,0.2-0.1,0.4-0.1,0.6c0,0.1,0,0.1,0,0.2l70.9,78.7l0.3-0.6L530.2,383.8z"/>
			<path class="st63" d="M507.8,358.9h-0.8l14.2,15.8c0-0.3,0-0.7-0.1-1L507.8,358.9z"/>
			<polygon class="st63" points="500,350.2 454.9,300.2 454.6,300.8 499.1,350.2 			"/>
			<polygon class="st63" points="497.6,350.2 452.6,300.2 452.3,300.8 496.8,350.2 			"/>
			<path class="st63" d="M521.3,376.5l-15.9-17.6h-0.8l16.7,18.6c0-0.1,0-0.2,0-0.3C521.3,377,521.3,376.7,521.3,376.5z"/>
			<path class="st63" d="M529.7,385.8c-0.1,0.2-0.2,0.4-0.2,0.7l69.2,76.8l0.3-0.6L529.7,385.8z"/>
			<polygon class="st63" points="495.3,350.2 450.2,300.2 449.9,300.8 494.4,350.2 			"/>
			<path class="st63" d="M503.1,358.9h-0.8l19.2,21.3c0-0.3,0-0.6,0-1L503.1,358.9z"/>
			<path class="st63" d="M529,387.6c-0.1,0.2-0.2,0.4-0.3,0.6c0,0,0,0,0,0l67.6,75.1l0.3-0.6L529,387.6z"/>
			<polygon class="st63" points="492.9,350.2 447.9,300.2 447.6,300.8 492.1,350.2 			"/>
			<path class="st63" d="M499.9,358.9l21.5,23.9c0-0.3,0-0.6,0-0.9l-20.7-23H499.9z"/>
			<path class="st63" d="M527.9,389.1c-0.2,0.1-0.4,0.2-0.6,0.3l66.6,73.9l0.3-0.6L527.9,389.1z"/>
			<path class="st63" d="M497.6,358.9l23.8,26.4c0-0.3,0-0.6,0-0.9l-23-25.6H497.6z"/>
			<path class="st63" d="M526.2,389.7c0,0.3-0.1,0.5-0.1,0.8l65.5,72.8l0.3-0.6L526.2,389.7z"/>
			<polygon class="st63" points="490.6,350.2 445.5,300.2 445.3,300.8 489.8,350.2 			"/>
			<path class="st63" d="M495.2,358.9l26,28.9c0-0.3,0-0.6,0.1-0.9l-25.2-28H495.2z"/>
			<path class="st63" d="M525.8,391.9c-0.1,0.2-0.1,0.5-0.2,0.7l63.7,70.7l0.3-0.6L525.8,391.9z"/>
			<polygon class="st63" points="488.3,350.2 443.2,300.2 442.9,300.8 487.4,350.2 			"/>
			<polygon class="st63" points="485.9,350.2 440.9,300.2 440.6,300.8 485.1,350.2 			"/>
			<path class="st63" d="M492.9,358.9l28.1,31.2c0-0.3,0.1-0.5,0.1-0.8l-27.4-30.4H492.9z"/>
			<path class="st63" d="M525.1,393.7c-0.1,0.2-0.2,0.4-0.3,0.6l62.1,68.9l0.3-0.6L525.1,393.7z"/>
			<path class="st63" d="M524.2,395.4c-0.1,0.2-0.3,0.3-0.4,0.5l60.7,67.4l0.3-0.6L524.2,395.4z"/>
			<path class="st63" d="M490.6,358.9l29.9,33.2c0.1-0.2,0.2-0.4,0.3-0.7l-29.3-32.5H490.6z"/>
			<polygon class="st63" points="483.6,350.2 438.5,300.2 438.2,300.8 482.7,350.2 			"/>
			<polygon class="st63" points="481.2,350.2 436.2,300.2 435.9,300.8 480.4,350.2 			"/>
			<path class="st63" d="M488.2,358.9l30.9,34.3c0.2-0.1,0.4-0.2,0.6-0.3l-30.6-34H488.2z"/>
			<path class="st63" d="M523,396.6c-0.2,0.1-0.3,0.3-0.5,0.4l59.7,66.3l0.3-0.6L523,396.6z"/>
			<polygon class="st63" points="478.9,350.2 433.8,300.2 433.6,300.8 478.1,350.2 			"/>
			<path class="st63" d="M485.9,358.9l32.2,35.8c0-0.2,0.1-0.5,0.2-0.7l-31.6-35.1H485.9z"/>
			<path class="st63" d="M521.5,397.5c-0.1,0-0.1,0.1-0.2,0.1c-0.2,0.1-0.3,0.1-0.4,0.1l59,65.6l0.3-0.6L521.5,397.5z"/>
		</g>
		<path class="st64" d="M457.5,341.2c0,0-1.3,5.3,1.3,8.1c2.5,2.8-20.9,4.8-20.9,4.8l-11.3,4.5c0,0-2.6,1.1-4.1,4.7
			c-1.4,3.7-1.2-5.8-1.2-5.8l1.4-6.3l32.9-13.2L457.5,341.2z"/>
		<path class="st65" d="M406.8,258.2c0,0,2.8,11.7,0.4,18.5c-1.8,5.3,19.4-4,19.4-4l-2.7-4l-0.1-2.1l-3.8-6.1L406.8,258.2z"/>
		<path id="XMLID_2_" class="st66" d="M459.9,340.7c2.3,3.8-8.6,3.7-12.9,4.8c-3.8,1-18.4,6.3-20.4,6.9c-2.2,0.7-5,0.1-6.2-1.8
			c-2.7-4.3,0.7-10.7,1.1-15.2c0.4-4.1-0.7-8.5-1.3-12.5c-1-6.8-1.8-18.2-6.9-23.2c-4.3-4.2-10.3-11.3-11-17.5
			c-0.8-6.4,1-10.4,4.6-12.9c2.3-1.5,18.5,2.2,19.9,3.8c1.5,1.7,7.8,4.4,9.4,5.8c6.5,5.3,9.7,12.5,12,20.3
			C452.2,313.4,454.2,331,459.9,340.7z"/>
		<g class="st33">
			<polygon class="st67" points="566.9,287.3 565.7,285.6 553.9,284.4 544.8,279.7 538.6,281.2 537.3,290 551.4,287.5 559,287.2 			
				"/>
			<circle class="st67" cx="540.3" cy="290.1" r="3.4"/>
			<polygon class="st67" points="551.5,290.3 551,288.3 546.1,291.5 540.5,290.2 540.5,293.1 546.2,293.1 			"/>
		</g>
		<polygon class="st68" points="484.4,276.1 524.9,280.4 542.4,281.2 540.2,289.3 483.3,291.1 		"/>
		<path class="st68" d="M426.7,214.6c0,0,8.7,13.4,8.3,18.1s-0.5,6.2-0.5,6.2l2.9,9.3c0.2,0.7-0.1,1.4-0.7,1.8l-3.7,2.2l-1.4,9.1
			c-0.5,2.9-3.4,4.8-6.2,3.9l-2.4-0.7l-13.2-4.4l-7.7-1.1l-4.5-15.8l-1.8-18.3c0,0,0.2-9,8.8-10.9
			C413.2,212,426.7,214.6,426.7,214.6z"/>
		<polygon class="st33" points="431.9,235.4 428.6,234.1 424.2,236.3 422.1,237 422.1,235.6 424.8,233.3 429.1,232.6 431.8,233.9 
			433.1,234.5 433.2,235.8 		"/>
		<path class="st33" d="M427.6,238.5c0,1.3,1,2.3,2.2,2.3s2.2-1.1,2.2-2.3c0-1.3-0.6-1.2-1.8-1.5
			C428.4,236.5,427.6,237.2,427.6,238.5z"/>
		<path class="st65" d="M407.2,238.3c0-0.1-0.4-1-1.3-1.3c-0.9-0.2-1.7,0.4-2.1,1.1c-0.4,0.9-0.1,1.7,0,1.8l3,7.3l0.9,3l2.1,2.2
			l-0.4-3.4L407.2,238.3z"/>
		<path class="st33" d="M413,236.3v8.7l0.4,3l-3.6-3.2l-2.6-6.5l-3.3-0.1l0.2,5.4l-1.1,3.5v2.8l-0.6,3.8l-7.2-8.9l-4.9-2.5l1.8-17.3
			l5.7-9.4l8.4-2.7c0,0,18.7-10.1,16-7.6c-1.8,1.7-3.2,4.6-3.2,4.6s8.3-2.5,6.7-1.8c-2.1,0.9-3.1,5.9-3.1,5.9s19.1-1.3,15.3-0.7
			c-9.8,1.6-7.1,3.8-7.1,3.8l6,3.3l-6-0.7c0,0,2.1,0.9,3.8,4.1c1.7,3.2,0.7,3.1-2.3,1.1c-3-2-11.7-3.2-11.7-3.2l3.9,4.1l-9-2.5
			l3,3.9l-6.2-1l3.5,5.7h-3.5l3,5.4L413,236.3z"/>
		<path class="st70" d="M432.6,206.3c2.6,6.6-6.5,16.5-20.4,22.1c-13.9,5.6-27.3,4.7-30-1.9c-2.6-6.6,2.9-14.3,17.7-16.6
			c0.9-0.1,2.2-0.7,2.9-1.3c2.4-2.4,7.3-4.8,11.9-7.1C422.9,197.5,431.1,202.6,432.6,206.3z"/>
		<g class="st33">
			<g>
				<path class="st71" d="M401.5,208.8c-1.1-1.2-2.1-2.5-3.5-3.4c-1.4-0.9-2.8-1.3-4.3-1.8c-1.8-0.6-2.6,2.3-0.8,2.9
					c1.3,0.4,2.5,0.7,3.7,1.6c1.1,0.8,1.9,1.9,2.9,2.9C400.8,212.3,402.9,210.2,401.5,208.8L401.5,208.8z"/>
			</g>
		</g>
		<g class="st33">
			<path class="st72" d="M424.6,207.5c0-0.3,0.1-0.8,0.2-1.1c0.1-0.4,0.7-0.9,1-1.2c0.7-0.5,1.5-0.5,2.3-0.2c1,0.4,1.2,1.4,1,2.3
				c-0.1,0.6-0.4,1.3-0.8,1.8c-0.4,0.5-0.6,0.9-0.9,1.4c-0.3,0.4-0.5,0.7-1,0.6c-0.3,0-0.9-0.1-1.1-0.3c-0.3-0.3-0.4-0.8-0.5-1.1
				C424.2,209.2,424.5,208,424.6,207.5"/>
		</g>
		<path class="st36" d="M508.2,422.7L508.2,422.7c-1.2,0-0.9-0.8-0.9-0.8c0-1.2-1.1-3.5-1.1-3.5c1.2,0,4.1,1,4.1,2.2l0,0
			C510.4,421.7,509.4,422.7,508.2,422.7z"/>
		<path class="st73" d="M529.3,381.2l11.5,45.8c0.3,1.4-3.8,5-5.7,5.3l-5.1,1.5c-1.9,0.4-3.2-3.1-3.5-4.5l-8.5-19
			c-0.5-1.3-7.4-24.1-7.4-24.1L529.3,381.2z"/>
		<g class="st33">
			<path class="st16" d="M573.8,439.5c-1.5,2.4-9,4.7-10.7,5.2c-0.2,0.1-0.5,0.1-0.7,0.1h-33.1v-2l33.5-0.3c0,0,7.8-1.7,11.2-3.3
				C574,439.2,574,439.3,573.8,439.5z"/>
			<path class="st74" d="M561.7,442.8h-32.3V428c0,0,4.2,1.7,5.6,1.4c1.5-0.3,4.6-5.3,5.5-3.9c4.7,7.4,21.2,12.9,21.2,12.9V442.8z"
				/>
			<path class="st74" d="M574.3,438.5h-12.6v4.3c0,0,4.4,0,7.4-1.4c1.3-0.6,3.8-1.5,5-2.2C574.6,438.9,574.3,438.5,574.3,438.5z"/>
		</g>
		<path class="st61" d="M446.4,442.6c-1.6,2-4.4,3-7,2.3l-2.8-0.8l2.5,0.5C441.8,445.1,444.5,444.3,446.4,442.6z"/>
		<path class="st73" d="M411.1,439.4l-45.4-13c-1.4-0.4-2.4-5.8-1.8-7.6l1.2-5.2c0.6-1.8,4.3-1.3,5.6-0.8l20.7,2.2
			c1.3,0.2,25,3.8,25,3.8L411.1,439.4z"/>
		<path class="st75" d="M358.9,447.2c-4.8,2.6-10.9-3.7-11-5.5c0-0.2-0.3-15.1-0.3-15.1l4.9-18.4l2,0.5l-5,18.6l0.6,14.1
			c0,0,2,6,8.6,5.6C358.7,447,359.1,447.1,358.9,447.2z"/>
		<path class="st73" d="M349.7,440.5l-0.2-13.2l5-18.6l14.2,3.8c0,0-2.7,3.6-2.8,5c-0.1,1.5,3.9,5.8,2.3,6.4c-3.3,1.1-6.9,4-9.9,7.2
			c-4.5,4.7-4.4,10.5-4.4,10.5L349.7,440.5z"/>
		<path class="st73" d="M353.9,441.6c0,0,1.6,5,4.8,5.4c2.3,0.3-8.8,1.1-8.9-6.5"/>
		<g class="st33">
			<defs>
				<path id="SVGID_7_" d="M460.2,340.4c2.3,3.8-8.6,3.7-12.9,4.8c-3.8,1-18.4,6.3-20.4,6.9c-2.2,0.7-5,0.1-6.2-1.8
					c-2.7-4.3,0.7-10.7,1.1-15.2c0.4-4.1-0.7-8.5-1.3-12.5c-1-6.8-1.8-18.2-6.9-23.2c-4.3-4.2-10.3-11.3-11-17.5
					c-0.8-6.4,1-10.4,4.6-12.9c2.3-1.5,18.5,2.2,19.9,3.8c1.5,1.7,7.8,4.4,9.4,5.8c6.5,5.3,9.7,12.5,12,20.3
					C452.5,313.1,454.4,330.7,460.2,340.4z"/>
			</defs>
			<clipPath id="SVGID_8_">
				<use xlink:href="#SVGID_7_"  style="overflow:visible;"/>
			</clipPath>
			<path class="st76" d="M404.3,299.3c-3.2-3.2,1.4-8.6,4.6-5.4c1.4,1.4,2.9,2.8,4.4,4.3v-51h-18.9v52.6h10.4
				C404.6,299.6,404.4,299.4,404.3,299.3z M398.3,286c-0.1-0.9-0.1-1.7-0.1-2.5c-0.2-0.5-0.3-1.1-0.2-1.7c0-0.3,0.1-0.6,0.1-0.9
				c-0.3-0.5-0.5-1-0.6-1.6c0-0.1,0-0.3-0.1-0.4c-0.1-0.3-0.1-0.5-0.2-0.8c-0.2-0.8-0.3-1.7-0.4-2.5c0-0.9,0.3-1.8,0.8-2.4
				c0-0.2-0.1-0.4-0.1-0.6c-0.1-0.9,0.3-1.9,0.8-2.5c0.6-0.6,1.6-1.2,2.5-1.2c0.4,0,0.8,0,1.2,0c1.8-1,4.2,0,5.1,1.9
				c0.7,0.8,0.9,2,0.5,3.2c0.1,1.2-0.3,2.5-1.3,3.2c-0.9,2.7-1.4,5.2-1.1,8.4C405.7,290.1,398.7,290.5,398.3,286z"/>
			<path class="st77" d="M412.3,352.9l-35.1-97.5l-0.2,0.6l35.1,97.4C412.1,353.2,412.2,353,412.3,352.9z"/>
			<path class="st77" d="M414.7,359.5c-0.2,0-0.3,0-0.5,0l22.5,62.4l0.2-0.6L414.7,359.5z"/>
			<path class="st77" d="M416.4,359c-0.1,0.1-0.3,0.1-0.4,0.2l22.5,62.6l0.2-0.6L416.4,359z"/>
			<path class="st77" d="M413.4,350.6l-34.3-95.3l-0.2,0.6l34.3,95.2C413.3,351,413.3,350.8,413.4,350.6z"/>
			<path class="st77" d="M414.5,348.3l-33.5-92.9l-0.2,0.6l33.4,92.9C414.4,348.7,414.5,348.5,414.5,348.3z"/>
			<path class="st77" d="M417.8,357.5C417.8,357.5,417.8,357.5,417.8,357.5c-0.1,0.2-0.2,0.4-0.3,0.5l23,63.8l0.2-0.6L417.8,357.5z"
				/>
			<path class="st77" d="M415.6,345.8L383,255.4l-0.2,0.6l32.6,90.4C415.4,346.2,415.5,346,415.6,345.8z"/>
			<path class="st77" d="M419,355.3c-0.1,0.2-0.2,0.4-0.3,0.5l23.8,66l0.2-0.6L419,355.3z"/>
			<path class="st77" d="M416.5,342.9L385,255.4l-0.2,0.6l31.6,87.7C416.4,343.4,416.4,343.2,416.5,342.9z"/>
			<path class="st77" d="M420.1,353c-0.1,0.2-0.2,0.4-0.3,0.5l24.6,68.3l0.2-0.6L420.1,353z"/>
			<path class="st77" d="M417.2,339.4l-30.3-84.1l-0.2,0.6l30.4,84.4C417.1,340,417.1,339.7,417.2,339.4z"/>
			<path class="st77" d="M421.2,350.6c-0.1,0.2-0.2,0.4-0.3,0.6l25.4,70.6l0.2-0.6L421.2,350.6z"/>
			<path class="st77" d="M404.9,299.8c-0.2-0.2-0.4-0.4-0.6-0.6c0,0-0.1-0.1-0.1-0.2l13.3,36.9c0-0.4,0-0.8,0-1.2L404.9,299.8z"/>
			<path class="st77" d="M403.4,295.7l-2.4-6.6c-0.2,0-0.3-0.1-0.5-0.1l2.7,7.6C403.2,296.2,403.3,295.9,403.4,295.7z"/>
			<path class="st77" d="M422.3,348.1c-0.1,0.2-0.2,0.4-0.2,0.6l26.3,73.1l0.2-0.6L422.3,348.1z"/>
			<path class="st77" d="M398,281.8c0-0.3,0.1-0.5,0.1-0.8l-0.1-0.2c-0.2-0.4-0.4-0.8-0.4-1.2l-8.7-24.2l-0.2,0.6l9.4,26
				C398,281.9,398,281.9,398,281.8z"/>
			<path class="st77" d="M423.2,345.3c-0.1,0.2-0.1,0.5-0.2,0.7l27.3,75.8l0.2-0.6L423.2,345.3z"/>
			<path class="st77" d="M407.8,302.7c-0.2-0.2-0.5-0.4-0.7-0.7l10.1,28.1c0-0.5-0.1-1.1-0.1-1.6L407.8,302.7z"/>
			<path class="st77" d="M404.6,293.7l-1.7-4.7c-0.1,0-0.3,0.1-0.4,0.1l1.8,4.9C404.4,293.9,404.5,293.8,404.6,293.7z"/>
			<path class="st77" d="M397.4,273.7l-6.6-18.4l-0.2,0.6l6.6,18.3C397.2,274.1,397.3,273.9,397.4,273.7z"/>
			<path class="st77" d="M398.2,270.5l-5.5-15.1l-0.2,0.6l5.4,15C398,270.8,398.1,270.7,398.2,270.5z"/>
			<path class="st77" d="M411,306.1c-0.3-0.3-0.5-0.7-0.8-1l6.3,17.5c-0.1-0.8-0.2-1.6-0.4-2.3L411,306.1z"/>
			<path class="st77" d="M406.3,292.9l-1.7-4.8c-0.1,0.1-0.2,0.2-0.3,0.3l1.7,4.6C406,293,406.1,292.9,406.3,292.9z"/>
			<path class="st77" d="M424,342c0,0.3-0.1,0.6-0.2,0.8l28.4,79l0.2-0.6L424,342z"/>
			<path class="st77" d="M399.7,269.2l-5-13.8l-0.2,0.6l4.8,13.4C399.4,269.3,399.6,269.3,399.7,269.2z"/>
			<path class="st77" d="M405.3,286.2l2.5,7c0.2,0.1,0.4,0.2,0.6,0.3l-3.1-8.7c0,0.3,0,0.5,0,0.8C405.4,285.8,405.4,286,405.3,286.2
				z"/>
			<path class="st77" d="M424.4,337.8c0,0.4,0,0.7-0.1,1.1l29.9,82.9l0.2-0.6L424.4,337.8z"/>
			<path class="st77" d="M401.5,268.9l-4.9-13.5l-0.2,0.6l4.6,12.9C401.2,268.9,401.4,268.9,401.5,268.9z"/>
			<path class="st77" d="M411.4,296.3l-5.8-16.1c-0.1,0.3-0.1,0.6-0.2,0.8l5.3,14.6C410.9,295.9,411.2,296.1,411.4,296.3z"/>
			<path class="st77" d="M424.5,332.6c0,0.5,0,0.9,0,1.4l31.6,87.9l0.2-0.6L424.5,332.6z"/>
			<path class="st77" d="M403.3,268.5l-4.7-13.2l-0.2,0.6l4.5,12.6C403.1,268.6,403.2,268.5,403.3,268.5z"/>
			<path class="st77" d="M414.4,299.3l-8-22.1c0,0,0,0,0,0c-0.1,0.2-0.1,0.4-0.2,0.6l7.5,20.8C414,298.8,414.2,299.1,414.4,299.3z"
				/>
			<path class="st77" d="M424,326c0.1,0.6,0.1,1.1,0.2,1.7l33.9,94.1l0.2-0.6L424,326z"/>
			<path class="st77" d="M405.4,268.9l-4.9-13.6l-0.2,0.6l4.6,12.7C405.1,268.8,405.3,268.8,405.4,268.9z"/>
			<path class="st77" d="M417.9,303.6l-10.3-28.5c0,0.2-0.1,0.5-0.2,0.7l9.5,26.4C417.3,302.7,417.6,303.2,417.9,303.6z"/>
			<path class="st77" d="M422.7,316.8c0.2,0.9,0.4,1.8,0.5,2.7L460,421.8l0.2-0.6L422.7,316.8z"/>
			<polygon class="st77" points="462,421.8 402.3,256 402.5,255.4 462.2,421.2 			"/>
			<polygon class="st77" points="463.9,421.8 404.2,256 404.5,255.4 464.2,421.2 			"/>
			<polygon class="st77" points="465.7,421.8 406,256 406.2,255.4 466,421.2 			"/>
			<polygon class="st77" points="467.7,421.8 408,256 408.2,255.4 467.9,421.2 			"/>
			<polygon class="st77" points="469.6,421.8 409.9,256 410.1,255.4 469.9,421.2 			"/>
			<polygon class="st77" points="471.6,421.8 411.9,256 412.1,255.4 471.8,421.2 			"/>
			<polygon class="st77" points="473.5,421.8 413.8,256 414,255.4 473.8,421.2 			"/>
			<polygon class="st77" points="475.5,421.8 415.8,256 416,255.4 475.7,421.2 			"/>
			<polygon class="st77" points="477.4,421.8 417.7,256 417.9,255.4 477.7,421.2 			"/>
			<polygon class="st77" points="479.4,421.8 419.7,256 419.9,255.4 479.6,421.2 			"/>
			<polygon class="st77" points="481.3,421.8 421.6,256 421.8,255.4 481.6,421.2 			"/>
			<polygon class="st77" points="483.3,421.8 423.6,256 423.8,255.4 483.5,421.2 			"/>
			<polygon class="st77" points="485.2,421.8 425.5,256 425.7,255.4 485.4,421.2 			"/>
			<polygon class="st77" points="487.2,421.8 427.5,256 427.7,255.4 487.4,421.2 			"/>
			<polygon class="st78" points="489.1,421.8 429.4,256 429.6,255.4 489.3,421.2 			"/>
			<polygon class="st77" points="491.1,421.8 431.4,256 431.6,255.4 491.3,421.2 			"/>
			<polygon class="st77" points="493,421.8 433.3,256 433.5,255.4 493.2,421.2 			"/>
			<polygon class="st77" points="495,421.8 435.2,256 435.5,255.4 495.2,421.2 			"/>
			<polygon class="st77" points="496.9,421.8 437.2,256 437.4,255.4 497.1,421.2 			"/>
			<polygon class="st77" points="498.9,421.8 439.1,256 439.4,255.4 499.1,421.2 			"/>
		</g>
		<path class="st79" d="M431,287.5c0,7.3-4.4,11.2-10.8,11.2c-6.4,0-15.6-6.5-15.6-13.8c0-7.3,1.1-11,7.5-11
			C418.5,274,431,280.2,431,287.5z"/>
		<polygon class="st64" points="406.5,264.1 426.5,267.5 426.5,270 406.5,267.1 		"/>
		<polygon class="st66" points="405.2,271.8 426.6,274 440.2,288.3 429.1,269.9 404.6,266.4 		"/>
		<g class="st33">
			<defs>
				<polygon id="SVGID_9_" points="404.4,271.8 425.9,274 439.5,288.3 428.4,269.9 403.8,266.4 				"/>
			</defs>
			<clipPath id="SVGID_10_">
				<use xlink:href="#SVGID_9_"  style="overflow:visible;"/>
			</clipPath>
			<polygon class="st80" points="537.4,428.3 415.6,262.5 415.8,261.8 537.6,427.6 			"/>
			<polygon class="st80" points="539.4,428.3 417.5,262.5 417.8,261.8 539.6,427.6 			"/>
			<polygon class="st80" points="541.3,428.3 419.5,262.5 419.7,261.8 541.5,427.6 			"/>
			<polygon class="st80" points="543.3,428.3 421.4,262.5 421.7,261.8 543.5,427.6 			"/>
			<polygon class="st80" points="535.5,428.3 413.6,262.5 413.9,261.8 535.7,427.6 			"/>
			<polygon class="st80" points="533.5,428.3 411.7,262.5 411.9,261.8 533.7,427.6 			"/>
			<polygon class="st80" points="531.6,428.3 409.7,262.5 410,261.8 531.8,427.6 			"/>
			<polygon class="st80" points="529.6,428.3 407.8,262.5 408,261.8 529.8,427.6 			"/>
			<polygon class="st80" points="527.7,428.3 405.8,262.5 406.1,261.8 527.9,427.6 			"/>
			<polygon class="st80" points="525.7,428.3 403.9,262.5 404.1,261.8 525.9,427.6 			"/>
			<polygon class="st80" points="523.8,428.3 401.9,262.5 402.2,261.8 524,427.6 			"/>
		</g>
		<path class="st81" d="M429.9,294.7c-0.1-0.3-0.5-0.4-0.7-0.1c-1.2,1.8-2.9,3.1-5,3.8c-0.1,0-0.2,0.1-0.2,0.2
			c-0.1,0-0.3-0.1-0.4-0.1c-0.5-0.1-0.7,0.6-0.2,0.7c2.9,0.7,5,2.8,5.8,5.6c0.1,0.3,0.6,0.4,0.7,0
			C430.7,301.5,430.7,298.1,429.9,294.7z"/>
		<path class="st81" d="M456,339.8c-1.8,2-4,3.6-6.5,4.6c0,0-0.1,0-0.1,0.1c-1.3,0.1-2.7,0.3-4,0.6c1.6-1.6,2.6-3.9,2.7-6.4
			c0-0.4-0.5-0.5-0.7-0.2c-3,4.8-7.3,8.5-12.6,10.6c-0.4,0.2-0.3,0.9,0.2,0.7c1.3-0.5,2.6-1.2,3.9-1.9c0.1,0.1,0.2,0.1,0.3,0.1
			c1.9-0.2,3.6-0.9,5-1.9c0,0,0,0,0,0c2.6-0.8,5.2-1.1,8-1c0.3,0,0.4-0.3,0.3-0.5c1.7-1.1,3.1-2.6,4.1-4.3
			C456.8,339.9,456.3,339.5,456,339.8z M440.1,347.1"/>
		<path class="st81" d="M436.5,334.8c0-0.3-0.4-0.4-0.6-0.3c-0.2,0-0.4,0-0.4,0.2c-2.2,6.8-6.1,12.9-11.2,17.8c0,0,0,0,0,0
			c-0.4,0.2-0.1,0.9,0.4,0.7c3.4-1.6,8.2-1.6,10.1-5.5C436.6,344,436.8,338.9,436.5,334.8z M426,351.9"/>
		<path class="st81" d="M429.3,311.2c0-0.3-0.3-0.4-0.5-0.4c-0.2-0.3-0.6-0.3-0.7,0.1c-0.6,2.7-1,5.8-0.2,8.4v0
			c0,0.1-0.1,0.1-0.1,0.2c0,4.6-0.1,9.6-3.1,13.4c0.1,0.4,0.1,0.9,0,1.2c0.2-0.2,0.4-0.5,0.6-0.7c0.1,0,0.2,0,0.3-0.1
			c2.9-3.4,4.1-7.9,3.3-12.3c0,0,0,0,0,0c1.3,1.5,3.3,2.1,4.5,3.7c1.5,1.9,1.3,4.5,1.2,6.8c0,0.4,0.5,0.6,0.7,0.2
			C439.1,324.3,429.8,318.5,429.3,311.2z"/>
		<path class="st64" d="M478.5,277.6c0,0-35.6-2.1-55.7-2.2c-2.5,0-8.5,0.2-8.5,0.2c0,0,0,0,0,0c-2.9-1-5.8,1-6.9,3.9l-1.8,4.4
			c-1.3,3.3,0.3,7,3.6,8.4l9.4,3.7c0.3,0.1,0.6,0.3,0.9,0.3l0.2,0.1l0,0c0.6,0.2,1.3,0.2,1.9,0l13.5-4.7c0.4-0.1,0.9-0.2,1.3-0.2
			l42,1.4C481.4,292.7,481.4,277.6,478.5,277.6z"/>
		<path class="st81" d="M512.3,364.3c0.1-0.4-0.5-0.5-0.7-0.2c-1.6,2.6-3.9,4.5-6.6,5.7c-0.1,0-0.1,0-0.1,0.1
			c-0.9,0.4-1.9,0.7-2.9,0.9c-0.5,0.1-0.3,0.8,0.2,0.7c1.1-0.2,2.1-0.6,3.1-1C508.9,370.5,511.8,368,512.3,364.3z"/>
		<path class="st81" d="M519.3,367.5c-0.1,0-0.2,0-0.4,0.1c-2.6,2.4-5.4,4.5-8.5,6.1c-0.4,0.2-0.1,0.7,0.2,0.7
			c-0.1,0.6-0.2,1.3-0.2,1.9c0,0.3,0.3,0.5,0.6,0.3c3.6-2.2,6.5-5.2,8.8-8.7C520.1,367.6,519.6,367.3,519.3,367.5z M511.3,375.6
			c0-0.4,0.1-0.8,0.2-1.3c0-0.1,0-0.2-0.1-0.3"/>
		<path class="st82" d="M516.7,365.3c-2.1,2-4.4,3.4-7.1,4.3c-0.5,0.2-0.3,0.9,0.2,0.7c0.1,0,0.2-0.1,0.4-0.1c0,0,0,0,0,0
			c0.4,1.2,0.7,2.4,0.9,3.7c0,0.3,0.4,0.5,0.6,0.3c2.6-2,4.1-5.7,5.6-8.5C517.5,365.4,517.1,365,516.7,365.3z"/>
		<path class="st82" d="M476.7,371.3c-5.9,3.1-12,5.9-18.1,8.6c-0.4,0.2-0.1,0.9,0.4,0.7c0.5-0.2,0.9-0.4,1.4-0.6c0.1,0,0.1,0,0.2,0
			c6-1.4,12.2-3.4,16.6-8C477.5,371.6,477.1,371.1,476.7,371.3z"/>
		<path class="st82" d="M465.3,372c-3.6,0.3-6.9,1.7-10.4,2.4c-2.2,0.5-4.5,0.7-6.7,0c-1.8-0.5-3.5-1.4-5.2-2.3
			c-5.9-3.1-11.4-7-16.3-11.5c-0.2-0.2-0.4-0.5-0.7-0.7c0,0,0,0-0.1,0c-0.1-0.1-0.1-0.1-0.2-0.2c-0.4-0.3-0.9,0.2-0.5,0.5
			c0.2,0.2,0.4,0.4,0.7,0.6c-0.1,0-0.2,0.2-0.2,0.3c0.4,5.2,1.6,10.6,5.1,14.7c1.8,2.1,4.1,3.6,6.6,4.3c0.9,0.9,2.1,1.3,3.4,1.1
			c0,0,0,0,0.1,0c0.4,0.3,0.8,0.5,1.2,0.6c1.8,0.7,3.9,0.3,5.7-0.2c2.1-0.5,4.2-1.2,6.2-2c4.3-1.7,8.2-4.2,11.7-7.2
			C465.8,372.5,465.7,372,465.3,372z"/>
		<path class="st82" d="M449,434.4c0-0.2-0.2-0.2-0.3-0.3l0,0c0-0.2-0.2-0.3-0.4-0.3c-2.2,0.2-4.4,0.2-6.6,0.2
			c-2-0.4-3.9-1.2-5.6-2.4c-0.4-0.3-0.8,0.4-0.4,0.7c0,0,0,0,0.1,0c0,0.1,0.1,0.2,0.2,0.3c0.4,0.3,0.8,0.6,1.3,0.8
			c0.2,0.1,0.4,0.3,0.6,0.4c-0.9-0.1-1.8-0.2-2.7-0.3c-0.5-0.6-0.9-1.3-1.3-1.9c-0.7-1.1-1.4-2.1-2.1-3.3c0,0,0-0.1-0.1-0.1
			c-0.3-1.8-0.7-3.7-1-5.5c-0.1-0.4-0.7-0.3-0.7,0.1c0,0.8,0,1.5-0.1,2.3c-0.4-0.4-0.8-0.6-1.3-0.8c0,0,0-0.1,0-0.1
			c-0.1-0.3-0.4-0.3-0.6-0.2c-0.3-0.2-0.6-0.4-1-0.5c-0.1-0.1-0.1-0.1-0.2-0.1c0,0-0.1,0-0.1-0.1c-0.4-0.2-0.7,0.5-0.2,0.7
			c0,0,0,0,0.1,0c0.6,0.8,1.1,1.7,1.5,2.6c0,0.9-0.3,1.8-0.7,2.5c-1.3-0.3-2.4-1.1-3.4-1.9c-0.3-0.2-0.7,0.2-0.5,0.5
			c0.7,1.2,1.6,2.3,2.5,3.4c-0.1,0.1-0.1,0.2-0.2,0.2c-4.1-1.2-8.1-2.7-12-4.7c-0.4-0.2-0.8,0.4-0.4,0.7c0.4,0.2,0.7,0.4,1.1,0.5
			c0,0,0,0-0.1,0c-2.2,2.3-5.6,7-1.6,9.5c2.1,1.3,5,1.6,7.4,2.2c3.1,0.8,6.3,1.7,9.4,2.5c3.6,1,8,2.7,11.9,2.1c0,0,0.1,0,0.1,0
			c2.4,0.2,4.1-1.2,5.5-2.9C449,439.1,449.7,437.5,449,434.4z"/>
		<path class="st82" d="M451.2,384.6c-0.7-0.8-2.6-0.1-3.4,0c-7.6,0.4-15.6-4.3-19.7-10.6c-0.2-0.3-0.7-0.1-0.7,0.2
			c0,0.1,0,0.1,0,0.2c1.4,5.3,6,8.6,10.5,11.2c5.6,3.3,13.1,7.7,12,15.4c0,0.3,0.2,0.5,0.5,0.5c0.2,0.1,0.6,0,0.6-0.3
			c0.3-4.2,0.6-8.4,0.6-12.7C451.5,387.5,451.9,385.4,451.2,384.6z"/>
		<g class="st33">
			<defs>
				<path id="SVGID_11_" d="M478.5,277.6c0,0-35.6-2.3-55.7-2.5c-2.5,0-8.5-0.1-8.5-0.1c0,0,0,0,0,0c-2.9,0-5.8,1.3-6.9,4.1
					l-1.8,4.5c-1.3,3.3,0.3,7.1,3.6,8.4l9.4,3.7c0.3,0.1,0.6,0.3,0.9,0.4l0.2,0.1l0,0c0.6,0.2,1.3,0.2,1.9,0l13.5-4.7
					c0.4-0.1,0.9-0.2,1.3-0.2l42,1.4C481.4,292.7,481.4,277.6,478.5,277.6z"/>
			</defs>
			<clipPath id="SVGID_12_">
				<use xlink:href="#SVGID_11_"  style="overflow:visible;"/>
			</clipPath>
			<path class="st83" d="M444.9,290.2c0.8-0.9,1.5-1.8,2-2.8L444.9,290.2z"/>
			<path class="st83" d="M443.1,292.6L334.4,443.1l0.2,0.7l108.8-150.5C443.2,293,443.1,292.8,443.1,292.6z"/>
			<path class="st83" d="M455.8,276l3.4-4.7l-0.2-0.7l-3.4,4.7C455.7,275.5,455.8,275.8,455.8,276z"/>
			<path class="st83" d="M449.2,285.2l2-2.8c-0.2,0-0.3,0.1-0.5,0.1c-0.1,0-0.3,0.1-0.4,0.1l-1.2,1.6
				C449.3,284.5,449.3,284.8,449.2,285.2C449.2,285.1,449.2,285.2,449.2,285.2z"/>
			<path class="st83" d="M454.4,275.2l2.8-3.9l-0.2-0.7l-3.4,4.7C453.8,275.3,454.1,275.3,454.4,275.2z"/>
			<path class="st83" d="M443.5,289.4L332.4,443.1l0.2,0.7l112.1-155.1C444.3,288.9,443.9,289.1,443.5,289.4z"/>
			<path class="st83" d="M452.1,275.7l3.2-4.4l-0.2-0.7l-3.3,4.5C451.9,275.3,452,275.5,452.1,275.7z"/>
			<path class="st83" d="M445.7,283.5l-2.2,3c0.5-0.3,0.9-0.6,1.3-0.9l1.7-2.3C446.2,283.4,445.9,283.5,445.7,283.5z"/>
			<path class="st83" d="M440.3,290.9l-110,152.2l0.2,0.7l110.8-153.3C441,290.6,440.7,290.8,440.3,290.9z"/>
			<path class="st83" d="M450.6,274.9l2.6-3.6l-0.2-0.7l-3,4.2C450.2,274.9,450.4,274.9,450.6,274.9z"/>
			<path class="st83" d="M443.4,283.9l-3.2,4.4c0.4-0.2,0.7-0.4,1.1-0.6l2.9-4C443.9,283.8,443.7,283.9,443.4,283.9z"/>
			<path class="st83" d="M437.6,292L328.4,443.1l0.2,0.7l109.9-152.1C438.2,291.8,437.9,291.9,437.6,292z"/>
			<path class="st83" d="M435.5,292.1L326.4,443.1l0.2,0.7L436,292.4C435.8,292.4,435.6,292.3,435.5,292.1z"/>
			<path class="st83" d="M448.8,274.7l2.5-3.4l-0.2-0.7l-2.9,4C448.3,274.7,448.6,274.7,448.8,274.7z"/>
			<path class="st83" d="M441.2,284.2l-3.8,5.3c0.3-0.1,0.7-0.3,1-0.4l3.6-5C441.7,284.2,441.4,284.2,441.2,284.2z"/>
			<path class="st83" d="M438.9,284.6L324.4,443.1l0.2,0.7L435,291c0-0.4,0.2-0.7,0.7-0.9l4.1-5.7
				C439.5,284.5,439.2,284.5,438.9,284.6z"/>
			<path class="st83" d="M446.9,274.6l2.4-3.3l-0.2-0.7l-2.8,3.9C446.4,274.6,446.6,274.6,446.9,274.6z"/>
			<path class="st83" d="M436.6,285L322.4,443.1l0.2,0.7l114.8-158.9C437.2,284.9,436.9,285,436.6,285z"/>
			<path class="st83" d="M444.9,274.6l2.3-3.2l-0.2-0.7l-2.9,4C444.4,274.6,444.6,274.6,444.9,274.6z"/>
			<path class="st83" d="M442.8,274.7l2.5-3.4l-0.2-0.7l-3,4.2C442.3,274.8,442.5,274.7,442.8,274.7z"/>
			<path class="st83" d="M434.5,285.3l-114,157.8l0.2,0.7l114.6-158.6C435,285.2,434.7,285.2,434.5,285.3z"/>
			<path class="st83" d="M457.3,276.7l3.9-5.4l-0.2-0.7l-4.4,6.1C456.8,276.7,457.1,276.7,457.3,276.7z"/>
			<path class="st83" d="M452.7,282l-4.2,5.8c-0.8,1.7-2.1,3-3.3,4.5L336.4,443.1l0.2,0.7l106.8-147.8c-0.1-0.4,0-0.8,0.5-1.1
				c0.2-0.1,0.4-0.2,0.5-0.3l9.2-12.7C453.3,281.8,453,281.9,452.7,282z"/>
			<path class="st83" d="M459.3,276.7l3.9-5.4l-0.2-0.7l-4.4,6.1C458.8,276.7,459,276.7,459.3,276.7z"/>
			<path class="st83" d="M444.1,296.8L338.4,443.1l0.2,0.7l106.1-146.9C444.5,296.9,444.3,296.9,444.1,296.8z"/>
			<path class="st83" d="M455.3,281.3l-8.5,11.7c0.4-0.3,0.9-0.6,1.3-0.9l8.1-11.1C455.9,281.1,455.6,281.2,455.3,281.3z"/>
			<path class="st83" d="M461.3,276.7l3.9-5.4l-0.2-0.7l-4.4,6.1C460.8,276.7,461,276.7,461.3,276.7z"/>
			<path class="st83" d="M457.8,280.6l-7.2,10c0.5-0.3,0.9-0.6,1.4-0.9l6.7-9.3C458.3,280.4,458.1,280.5,457.8,280.6z"/>
			<path class="st83" d="M446.9,295.6L340.4,443.1l0.2,0.7l107.6-148.9C447.8,295.1,447.3,295.4,446.9,295.6z"/>
			<path class="st83" d="M463.2,276.7l3.9-5.4l-0.2-0.7l-4.4,6.1C462.8,276.7,463,276.7,463.2,276.7z"/>
			<path class="st83" d="M460.2,280l-5.6,7.8c0.5-0.4,1-0.8,1.6-1.2l3.9-5.5c0-0.4,0.2-0.8,0.7-1l0.2-0.3
				C460.7,279.9,460.4,280,460.2,280z"/>
			<path class="st83" d="M450.6,293.3L342.3,443.1l0.2,0.7L452,292.4C451.5,292.7,451,293,450.6,293.3z"/>
			<path class="st83" d="M465.2,276.7l3.9-5.4l-0.2-0.7l-4.4,6.1C464.8,276.7,465,276.7,465.2,276.7z"/>
			<path class="st83" d="M454.5,290.6L344.3,443.1l0.2,0.7L456,289.6C455.5,289.9,455,290.3,454.5,290.6z"/>
			<path class="st83" d="M467.2,276.7l3.9-5.4l-0.2-0.7l-4.4,6.1C466.8,276.7,467,276.7,467.2,276.7z"/>
			<path class="st83" d="M459.6,286.7c-0.3,0.2-0.5,0.4-0.8,0.7L346.3,443.1l0.2,0.7l113.3-156.8
				C459.8,286.9,459.7,286.8,459.6,286.7z"/>
			<path class="st83" d="M469.3,276.7l3.9-5.4l-0.2-0.7l-4.4,6.1C468.8,276.7,469,276.7,469.3,276.7z"/>
			<path class="st83" d="M454.2,296.6L348.3,443.1l0.2,0.7l105.9-146.6C454.3,297,454.2,296.8,454.2,296.6z"/>
			<path class="st83" d="M461.2,286.8l-5.9,8.2c0.4-0.2,0.8-0.5,1.2-0.7l5.7-7.9C461.9,286.6,461.6,286.7,461.2,286.8z"/>
			<path class="st83" d="M471,276.7c0.1,0,0.2,0,0.3,0l3.9-5.4l-0.2-0.7l-4.4,6C470.7,276.7,470.8,276.7,471,276.7z"/>
			<path class="st83" d="M464.8,284.9c-0.1,0.1-0.2,0.1-0.3,0.2l-5.7,7.9c0.4-0.3,0.9-0.5,1.3-0.8l5.6-7.7
				C465.4,284.6,465.1,284.7,464.8,284.9z"/>
			<path class="st83" d="M455.9,297.3c-0.1,0.1-0.3,0.1-0.4,0.1L350.3,443.1l0.2,0.7l106.1-146.8C456.4,297,456.2,297.2,455.9,297.3
				z"/>
			<path class="st83" d="M473.4,276.5l3.8-5.2l-0.2-0.7l-4.3,5.9C472.9,276.6,473.1,276.6,473.4,276.5z"/>
			<path class="st83" d="M468.2,283.2c-0.2,0.1-0.4,0.2-0.6,0.3l-5,7c0.5-0.3,1-0.7,1.5-1.1l4.8-6.6
				C468.6,282.9,468.4,283.1,468.2,283.2z"/>
			<path class="st83" d="M458.9,295.6L352.3,443.1l0.2,0.7l107.7-149C459.8,295,459.3,295.3,458.9,295.6z"/>
			<path class="st83" d="M471.8,280.9c-0.2,0.1-0.3,0.1-0.5,0.2l-4.5,6.2c0.5-0.4,1-0.7,1.5-1.1l3.7-5.2c-0.1-0.1-0.1-0.1-0.1-0.2
				C471.9,280.9,471.8,280.9,471.8,280.9z"/>
			<path class="st83" d="M462.7,293.1l-108.4,150l0.2,0.7l109.6-151.6C463.6,292.5,463.1,292.8,462.7,293.1z"/>
			<path class="st83" d="M475.4,276.5l3.8-5.2l-0.2-0.7l-4.2,5.9C474.9,276.5,475.1,276.5,475.4,276.5z"/>
			<path class="st83" d="M477.2,276.7l3.9-5.4l-0.2-0.7l-4.3,6C476.8,276.6,477,276.7,477.2,276.7z"/>
			<path class="st83" d="M473.5,281.8c-0.2-0.1-0.3-0.1-0.5-0.2l-1.8,2.5C472,283.4,472.8,282.6,473.5,281.8z"/>
			<path class="st83" d="M466.8,290.2L356.3,443.1l0.2,0.7l111.8-154.7C467.8,289.4,467.3,289.8,466.8,290.2z"/>
			<path class="st83" d="M479.3,276c0.1,0,0.2,0,0.4,0l3.4-4.7l-0.2-0.7L479,276C479.1,276,479.2,276,479.3,276z"/>
			<path class="st83" d="M471.1,287L358.3,443.1l0.2,0.7l114.3-158.1C472.2,286.1,471.7,286.6,471.1,287z"/>
			<path class="st83" d="M481.2,276.8l3.9-5.5l-0.2-0.7l-4.2,5.8C480.9,276.5,481,276.6,481.2,276.8z"/>
			<path class="st83" d="M476.6,282.2L360.3,443.1l0.2,0.7l116.8-161.7C477.1,282.1,476.8,282.1,476.6,282.2z"/>
			<path class="st83" d="M481.9,278.5l5.2-7.2l-0.2-0.7l-5.1,7.1C481.8,278,481.9,278.2,481.9,278.5z"/>
			<path class="st83" d="M479.1,281.5c0,0-0.1,0-0.1,0.1L362.3,443.1l0.2,0.7L480.1,281c-0.1,0-0.3,0-0.4,0
				C479.5,281.2,479.3,281.3,479.1,281.5z"/>
			<polygon class="st83" points="364.5,443.7 489.1,271.3 488.9,270.6 364.3,443.1 			"/>
			<polygon class="st83" points="366.5,443.7 491.1,271.3 490.9,270.6 366.3,443.1 			"/>
			<polygon class="st83" points="368.5,443.7 493.1,271.3 492.9,270.6 368.3,443.1 			"/>
			<polygon class="st83" points="370.5,443.7 495.1,271.3 494.8,270.6 370.2,443.1 			"/>
			<polygon class="st83" points="372.5,443.7 497.1,271.3 496.8,270.6 372.2,443.1 			"/>
			<polygon class="st83" points="374.5,443.7 499.1,271.3 498.8,270.6 374.2,443.1 			"/>
			<polygon class="st83" points="376.5,443.7 501.1,271.3 500.8,270.6 376.2,443.1 			"/>
			<polygon class="st83" points="378.5,443.7 503.1,271.3 502.8,270.6 378.2,443.1 			"/>
			<polygon class="st83" points="380.4,443.7 505,271.3 504.8,270.6 380.2,443.1 			"/>
			<polygon class="st83" points="286.6,443.7 411.2,271.3 411,270.6 286.4,443.1 			"/>
			<polygon class="st83" points="284.6,443.7 409.2,271.3 409,270.6 284.4,443.1 			"/>
			<polygon class="st83" points="282.7,443.7 407.2,271.3 407,270.6 282.4,443.1 			"/>
			<polygon class="st83" points="280.7,443.7 405.3,271.3 405,270.6 280.4,443.1 			"/>
			<path class="st83" d="M411.6,273.5l1.6-2.2l-0.2-0.7l-2,2.8C411.2,273.4,411.4,273.4,411.6,273.5z"/>
			<path class="st83" d="M408.8,276.4L288.4,443.1l0.2,0.7l120-166.1C408.6,277.3,408.7,276.8,408.8,276.4z"/>
			<path class="st83" d="M413.1,274.2l2.1-2.9l-0.2-0.7l-2.3,3.2C412.8,274,412.9,274.1,413.1,274.2z"/>
			<path class="st83" d="M408.5,279.6L290.4,443.1l0.2,0.7l118-163.3C408.5,280.2,408.5,279.9,408.5,279.6z"/>
			<path class="st83" d="M413.9,275.9l3.3-4.6l-0.2-0.7l-3.3,4.5C413.8,275.4,413.9,275.6,413.9,275.9z"/>
			<path class="st83" d="M408.9,281.8L292.3,443.1l0.2,0.7l116.5-161.3C409,282.3,408.9,282,408.9,281.8z"/>
			<path class="st83" d="M416.3,275.3l2.9-4l-0.2-0.7l-3.6,4.9C415.7,275.5,416,275.4,416.3,275.3z"/>
			<path class="st83" d="M409.6,283.6L294.3,443.1l0.2,0.7l115.4-159.6C409.8,283.9,409.7,283.7,409.6,283.6z"/>
			<path class="st83" d="M418.5,275l2.7-3.7l-0.2-0.7l-3.2,4.5C418,275.1,418.2,275.1,418.5,275z"/>
			<path class="st83" d="M410.6,285L296.3,443.1l0.2,0.7L411,285.4C410.8,285.3,410.7,285.1,410.6,285z"/>
			<path class="st83" d="M420.7,274.8l2.5-3.5l-0.2-0.7l-3.1,4.2C420.1,274.8,420.4,274.8,420.7,274.8z"/>
			<path class="st83" d="M416.8,279.2l-2.1,2.8c0.1,0.1,0.3,0.2,0.4,0.3c0,0,0.1,0,0.1,0l2.9-4C417.7,278.6,417.2,278.9,416.8,279.2
				z"/>
			<path class="st83" d="M411.8,286.1l-113.4,157l0.2,0.7l113.7-157.3C412.1,286.3,411.9,286.2,411.8,286.1z"/>
			<path class="st83" d="M423.1,274.2l2.1-2.9l-0.2-0.7l-2.8,3.8C422.5,274.4,422.8,274.3,423.1,274.2z"/>
			<path class="st83" d="M417.5,281.8l3.3-4.6c-0.3,0-0.5,0.1-0.8,0.1l-3.4,4.7C417,282,417.3,281.9,417.5,281.8z"/>
			<path class="st83" d="M413.1,287L300.3,443.1l0.2,0.7l113.1-156.5C413.4,287.2,413.3,287.1,413.1,287z"/>
			<path class="st83" d="M426.6,271.8c0.1-0.1,0.2-0.2,0.3-0.2l0.2-0.3l-0.2-0.7l-1.8,2.5C425.6,272.8,426.1,272.4,426.6,271.8z"/>
			<path class="st83" d="M420.5,280.5l2.7-3.8c-0.3,0.1-0.6,0.2-0.9,0.3l-2.9,4.1C419.7,280.9,420.1,280.7,420.5,280.5z"/>
			<path class="st83" d="M414.6,287.7L302.3,443.1l0.2,0.7l112.6-155.8C414.9,287.9,414.8,287.8,414.6,287.7z"/>
			<path class="st83" d="M423.2,279.6l3.2-4.4c-0.4,0.3-0.9,0.6-1.3,0.8l-2.8,3.9C422.6,279.7,422.9,279.6,423.2,279.6z"/>
			<path class="st83" d="M416.2,288.3L304.3,443.1l0.2,0.7l112.2-155.3C416.6,288.4,416.4,288.3,416.2,288.3z"/>
			<path class="st83" d="M425.4,279.3l5.8-8l-0.2-0.7l-6.3,8.7C424.9,279.3,425.1,279.3,425.4,279.3z"/>
			<path class="st83" d="M417.9,288.6L306.3,443.1l0.2,0.7l112-155C418.3,288.7,418.1,288.7,417.9,288.6z"/>
			<path class="st83" d="M428.5,277.4c0.2-0.1,0.4-0.3,0.5-0.4l4.1-5.7l-0.2-0.7l-5.4,7.5C427.8,277.9,428.1,277.7,428.5,277.4z"/>
			<path class="st83" d="M419.8,288.8L308.3,443.1l0.2,0.7l111.9-154.9C420.2,288.8,420,288.8,419.8,288.8z"/>
			<path class="st83" d="M433.4,273.2C433.4,273.2,433.4,273.2,433.4,273.2c0.1,0,0.2,0.1,0.3,0.1h0l1.4-2l-0.2-0.7l-1.8,2.5
				c0,0,0.1,0,0.1,0C433.2,273.2,433.3,273.2,433.4,273.2z"/>
			<path class="st83" d="M428.2,280.5c-0.2,0.2-0.5,0.3-0.7,0.5l-1.3,1.9c0.3-0.1,0.7-0.3,1-0.4l1.8-2.4
				C428.6,280.2,428.4,280.3,428.2,280.5z"/>
			<path class="st83" d="M421.8,288.8L310.3,443.1l0.2,0.7l112-155C422.3,288.8,422,288.8,421.8,288.8z"/>
			<path class="st83" d="M431.8,277.7l-2.7,3.7c0.4-0.2,0.8-0.5,1.2-0.7l2.6-3.6C432.5,277.3,432.2,277.5,431.8,277.7z"/>
			<path class="st83" d="M434.3,274.4c0,0.1,0,0.1,0,0.2c0.1,0,0.3,0,0.4,0l2.4-3.3l-0.2-0.7l-2.6,3.6
				C434.3,274.3,434.3,274.3,434.3,274.4C434.3,274.4,434.3,274.4,434.3,274.4z"/>
			<path class="st83" d="M424,288.5L312.3,443.1l0.2,0.7l112.3-155.4C424.5,288.4,424.2,288.5,424,288.5z"/>
			<path class="st83" d="M435.9,274.9c0.2,0.1,0.3,0.1,0.4,0.2l2.8-3.9l-0.2-0.7l-3.1,4.3C435.8,274.9,435.9,274.9,435.9,274.9z"/>
			<path class="st83" d="M434.9,277c-0.2-0.1-0.4-0.1-0.6-0.1l-1.9,2.6c0.3-0.1,0.5-0.1,0.8-0.1L434.9,277
				C434.9,277,434.9,277,434.9,277z"/>
			<path class="st83" d="M426.4,287.9L314.3,443.1l0.2,0.7l112.8-156.1C427,287.7,426.7,287.8,426.4,287.9z"/>
			<path class="st83" d="M429.1,286.9L316.3,443.1l0.2,0.7l113.6-157.3C429.8,286.6,429.4,286.8,429.1,286.9z"/>
			<path class="st83" d="M439.3,273.8l1.8-2.5l-0.2-0.7l-2,2.8C439,273.5,439.2,273.6,439.3,273.8z"/>
			<path class="st83" d="M440.4,275.1l2.7-3.8l-0.2-0.7l-3.4,4.6C439.8,275.2,440.1,275.1,440.4,275.1z"/>
			<path class="st83" d="M432.3,285.3c0,0-0.1,0-0.1,0.1L318.3,443.1l0.2,0.7L433,285.3C432.7,285.3,432.5,285.3,432.3,285.3z"/>
		</g>
		<rect x="477.2" y="276.1" class="st64" width="7" height="18.1"/>
		<path class="st84" d="M979.5,67.5v100c0,0-202.4,0-267.4,0c-16.6,0-37.9,13.2-72.3,13.2s-59.1-13.2-72.3-13.2c-66.2,0-271,0-271,0
			v-100h64.1c0-6,4.9-9.9,10.9-9.9c0.3,0,0.6-0.5,0.9-0.5c2.1-6,7.7-9.6,14.2-9.6h42.5c4.5,0,8.4-3.8,8.6-8.5c0-0.4,0-1,0-1.4
			c-0.1-1.1,0.7-1.1,1.8-1.1h148.8c7.8-9,28.1-15.1,51.8-15.1s43.9,6.1,51.6,15.1h150.3c1,0,1.9,0.4,1.8,1.5c0,0.4,0,0.2,0,0.6
			c0.2,4.7,4.1,8.9,8.6,8.9h41.2c6.5,0,12,4.5,14.2,10.5c5.6,0.4,10.1,4.5,10.1,9.5H979.5z"/>
		<line class="st85" x1="296.5" y1="77.9" x2="979.5" y2="77.9"/>
		<line class="st85" x1="296.5" y1="109.6" x2="979.5" y2="109.6"/>
		<line class="st85" x1="296.5" y1="142.1" x2="979.5" y2="142.1"/>
		<g class="st33">
			<text transform="matrix(1 0 0 1 359.2916 141.1946)" class="st86 st87 st88">FILMMAKER</text>
		</g>
		<g class="st33">
			<path class="st89" d="M430.7,63.7L450,41.5c2.9-3.5,7.3-5.5,12.1-5c6.5,0.8,11.9,6.5,12.6,13.6c0.9,9.3-5.8,17.2-14.2,17.2
				c-1.3,0-2.5-0.2-3.7-0.5c-5.7-1.7-7.8-9.5-3.5-13.9c1.1-1.1,3.1-2.7,5.1-3.2"/>
			<path class="st90" d="M430.7,63.7c-2.2,2.5-4.6,4.1-7.9,3.5c-3.1-0.6-5.7-2.7-6.2-7.7C416,54,418.9,48,423.8,48
				c0.7,0,6.3,1.4,6.6,5.4c0.4,5.9-2.1,8.8-6.8,4.1"/>
			<path class="st89" d="M457.3,50.1c0.8-0.4,1.4-0.6,2.2-0.6c2.7,0,4.9,2.4,4.9,5.3s-2.3,4.4-5,4.4"/>
		</g>
		<line class="st85" x1="360.6" y1="67.6" x2="919" y2="67.6"/>
		<line class="st91" x1="459.4" y1="59.2" x2="823.8" y2="60.3"/>
		<path class="st85" d="M450.8,58.1c-5.6-1.3-10.9,3.6-12.2,9.7"/>
		<path class="st85" d="M443.7,48.7c-2.9,6.1,2.3,10.8,7.7,8.6"/>
		<g class="st33">
			<path class="st89" d="M852.5,63.7l-19.3-22.2c-2.9-3.5-7.3-5.5-12.1-5c-6.5,0.8-11.9,6.5-12.6,13.6c-0.9,9.3,5.8,17.2,14.2,17.2
				c1.3,0,2.5-0.2,3.7-0.5c5.7-1.7,7.8-9.5,3.5-13.9c-1.1-1.1-3.1-2.7-5.1-3.2"/>
			<path class="st90" d="M852.5,63.7c2.2,2.5,4.6,4.1,7.9,3.5c3.1-0.6,5.7-2.7,6.2-7.7c0.6-5.5-2.4-11.6-7.3-11.6
				c-0.7,0-6.3,1.4-6.6,5.4c-0.4,5.9,2.1,8.8,6.8,4.1"/>
			<path class="st89" d="M825.9,50.1c-0.8-0.4-1.4-0.6-2.2-0.6c-2.7,0-4.9,2.4-4.9,5.3s2.2,5.3,4.9,5.3"/>
		</g>
		<path class="st85" d="M832.4,58.1c5.6-1.3,10.9,3.6,12.2,9.7"/>
		<path class="st85" d="M839.5,48.7c2.9,6.1-2.3,10.8-7.7,8.6"/>
	</g>
</g>
</svg>
